<mxfile host="app.diagrams.net" agent="Mozilla/5.0 (Macintosh; Intel Mac OS X 10_15_7) AppleWebKit/537.36 (KHTML, like Gecko) Chrome/128.0.0.0 Safari/537.36" version="24.7.17">
  <diagram id="C5RBs43oDa-KdzZeNtuy" name="Page-1">
    <mxGraphModel dx="3088" dy="785" grid="1" gridSize="10" guides="1" tooltips="1" connect="1" arrows="1" fold="1" page="1" pageScale="1" pageWidth="827" pageHeight="1169" math="0" shadow="0">
      <root>
        <mxCell id="WIyWlLk6GJQsqaUBKTNV-0" />
        <mxCell id="WIyWlLk6GJQsqaUBKTNV-1" parent="WIyWlLk6GJQsqaUBKTNV-0" />
        <mxCell id="RczMax2r31ByXmlt5z05-0" value="《interface》&#xa;Pool" style="swimlane;fontStyle=2;align=center;verticalAlign=top;childLayout=stackLayout;horizontal=1;startSize=40;horizontalStack=0;resizeParent=1;resizeLast=0;collapsible=1;marginBottom=0;rounded=0;shadow=0;strokeWidth=1;" parent="WIyWlLk6GJQsqaUBKTNV-1" vertex="1">
          <mxGeometry x="130" y="600" width="170" height="160" as="geometry">
            <mxRectangle x="190" y="630" width="160" height="26" as="alternateBounds" />
          </mxGeometry>
        </mxCell>
        <mxCell id="lq7LgunMjQ7Xtg1Cg7Fh-3" value="+ Acquire() (Dispatch, error)" style="text;html=1;align=left;verticalAlign=middle;whiteSpace=wrap;rounded=0;" parent="RczMax2r31ByXmlt5z05-0" vertex="1">
          <mxGeometry y="40" width="170" height="30" as="geometry" />
        </mxCell>
        <mxCell id="lq7LgunMjQ7Xtg1Cg7Fh-4" value="+ Release (dsp Dispatch)" style="text;html=1;align=left;verticalAlign=middle;whiteSpace=wrap;rounded=0;" parent="RczMax2r31ByXmlt5z05-0" vertex="1">
          <mxGeometry y="70" width="170" height="30" as="geometry" />
        </mxCell>
        <mxCell id="RczMax2r31ByXmlt5z05-6" value="pool" style="swimlane;fontStyle=0;align=center;verticalAlign=top;childLayout=stackLayout;horizontal=1;startSize=26;horizontalStack=0;resizeParent=1;resizeLast=0;collapsible=1;marginBottom=0;rounded=0;shadow=0;strokeWidth=1;" parent="WIyWlLk6GJQsqaUBKTNV-1" vertex="1">
          <mxGeometry x="110" y="860" width="210" height="282" as="geometry">
            <mxRectangle x="130" y="380" width="160" height="26" as="alternateBounds" />
          </mxGeometry>
        </mxCell>
        <mxCell id="RczMax2r31ByXmlt5z05-7" value="- name string" style="text;align=left;verticalAlign=top;spacingLeft=4;spacingRight=4;overflow=hidden;rotatable=0;points=[[0,0.5],[1,0.5]];portConstraint=eastwest;" parent="RczMax2r31ByXmlt5z05-6" vertex="1">
          <mxGeometry y="26" width="210" height="26" as="geometry" />
        </mxCell>
        <mxCell id="RczMax2r31ByXmlt5z05-8" value="- sync.Mutex" style="text;align=left;verticalAlign=top;spacingLeft=4;spacingRight=4;overflow=hidden;rotatable=0;points=[[0,0.5],[1,0.5]];portConstraint=eastwest;rounded=0;shadow=0;html=0;" parent="RczMax2r31ByXmlt5z05-6" vertex="1">
          <mxGeometry y="52" width="210" height="26" as="geometry" />
        </mxCell>
        <mxCell id="lq7LgunMjQ7Xtg1Cg7Fh-9" value="- pool chan Dispatch" style="text;align=left;verticalAlign=top;spacingLeft=4;spacingRight=4;overflow=hidden;rotatable=0;points=[[0,0.5],[1,0.5]];portConstraint=eastwest;rounded=0;shadow=0;html=0;whiteSpace=wrap;fillColor=#d5e8d4;strokeColor=#82b366;" parent="RczMax2r31ByXmlt5z05-6" vertex="1">
          <mxGeometry y="78" width="210" height="22" as="geometry" />
        </mxCell>
        <mxCell id="lq7LgunMjQ7Xtg1Cg7Fh-12" value="- maxOpen int // 池中最大资源数" style="text;align=left;verticalAlign=top;spacingLeft=4;spacingRight=4;overflow=hidden;rotatable=0;points=[[0,0.5],[1,0.5]];portConstraint=eastwest;rounded=0;shadow=0;html=0;" parent="RczMax2r31ByXmlt5z05-6" vertex="1">
          <mxGeometry y="100" width="210" height="30" as="geometry" />
        </mxCell>
        <mxCell id="lq7LgunMjQ7Xtg1Cg7Fh-13" value="- numOpen int // 当前池中资源数" style="text;align=left;verticalAlign=top;spacingLeft=4;spacingRight=4;overflow=hidden;rotatable=0;points=[[0,0.5],[1,0.5]];portConstraint=eastwest;rounded=0;shadow=0;html=0;" parent="RczMax2r31ByXmlt5z05-6" vertex="1">
          <mxGeometry y="130" width="210" height="30" as="geometry" />
        </mxCell>
        <mxCell id="lq7LgunMjQ7Xtg1Cg7Fh-14" value="- minOpen int // 池中最少资源数" style="text;align=left;verticalAlign=top;spacingLeft=4;spacingRight=4;overflow=hidden;rotatable=0;points=[[0,0.5],[1,0.5]];portConstraint=eastwest;rounded=0;shadow=0;html=0;" parent="RczMax2r31ByXmlt5z05-6" vertex="1">
          <mxGeometry y="160" width="210" height="30" as="geometry" />
        </mxCell>
        <mxCell id="lq7LgunMjQ7Xtg1Cg7Fh-15" value="- factory FactoryFn // 生产实例工厂类" style="text;align=left;verticalAlign=top;spacingLeft=4;spacingRight=4;overflow=hidden;rotatable=0;points=[[0,0.5],[1,0.5]];portConstraint=eastwest;rounded=0;shadow=0;html=0;" parent="RczMax2r31ByXmlt5z05-6" vertex="1">
          <mxGeometry y="190" width="210" height="30" as="geometry" />
        </mxCell>
        <mxCell id="RczMax2r31ByXmlt5z05-9" value="" style="line;html=1;strokeWidth=1;align=left;verticalAlign=middle;spacingTop=-1;spacingLeft=3;spacingRight=3;rotatable=0;labelPosition=right;points=[];portConstraint=eastwest;" parent="RczMax2r31ByXmlt5z05-6" vertex="1">
          <mxGeometry y="220" width="210" height="8" as="geometry" />
        </mxCell>
        <mxCell id="RczMax2r31ByXmlt5z05-11" value="+ Acquire() (Dispatch, error)" style="text;align=left;verticalAlign=top;spacingLeft=4;spacingRight=4;overflow=hidden;rotatable=0;points=[[0,0.5],[1,0.5]];portConstraint=eastwest;" parent="RczMax2r31ByXmlt5z05-6" vertex="1">
          <mxGeometry y="228" width="210" height="26" as="geometry" />
        </mxCell>
        <mxCell id="lq7LgunMjQ7Xtg1Cg7Fh-16" value="+ Release (dsp Dispatch)" style="text;align=left;verticalAlign=top;spacingLeft=4;spacingRight=4;overflow=hidden;rotatable=0;points=[[0,0.5],[1,0.5]];portConstraint=eastwest;" parent="RczMax2r31ByXmlt5z05-6" vertex="1">
          <mxGeometry y="254" width="210" height="26" as="geometry" />
        </mxCell>
        <mxCell id="RczMax2r31ByXmlt5z05-12" value="" style="endArrow=block;endSize=10;endFill=0;shadow=0;strokeWidth=1;rounded=0;curved=0;edgeStyle=elbowEdgeStyle;elbow=vertical;dashed=1;dashPattern=8 8;" parent="WIyWlLk6GJQsqaUBKTNV-1" source="RczMax2r31ByXmlt5z05-6" target="RczMax2r31ByXmlt5z05-0" edge="1">
          <mxGeometry width="160" relative="1" as="geometry">
            <mxPoint x="170" y="713" as="sourcePoint" />
            <mxPoint x="170" y="713" as="targetPoint" />
          </mxGeometry>
        </mxCell>
        <mxCell id="lq7LgunMjQ7Xtg1Cg7Fh-23" value="《interface》&#xa;Diapatch" style="swimlane;fontStyle=2;align=center;verticalAlign=top;childLayout=stackLayout;horizontal=1;startSize=40;horizontalStack=0;resizeParent=1;resizeLast=0;collapsible=1;marginBottom=0;rounded=0;shadow=0;strokeWidth=1;fillColor=#d5e8d4;strokeColor=#82b366;" parent="WIyWlLk6GJQsqaUBKTNV-1" vertex="1">
          <mxGeometry x="520" y="921" width="392" height="160" as="geometry">
            <mxRectangle x="190" y="630" width="160" height="26" as="alternateBounds" />
          </mxGeometry>
        </mxCell>
        <mxCell id="lq7LgunMjQ7Xtg1Cg7Fh-26" value="+ DatasSet // 提供数据集合的读写" style="text;html=1;align=left;verticalAlign=middle;whiteSpace=wrap;rounded=0;fillColor=#e1d5e7;strokeColor=#9673a6;" parent="lq7LgunMjQ7Xtg1Cg7Fh-23" vertex="1">
          <mxGeometry y="40" width="392" height="30" as="geometry" />
        </mxCell>
        <mxCell id="lq7LgunMjQ7Xtg1Cg7Fh-27" value="&lt;div style=&quot;background-color: rgb(248, 249, 250); font-size: 13px; line-height: 20px; white-space: pre;&quot;&gt;&lt;font face=&quot;Helvetica&quot;&gt;+ Run(*apiserver.Context) error //&lt;/font&gt;&lt;span style=&quot;font-style: italic;&quot;&gt; 执行所有注册的处理器&lt;/span&gt;&lt;/div&gt;" style="text;html=1;align=left;verticalAlign=middle;whiteSpace=wrap;rounded=0;" parent="lq7LgunMjQ7Xtg1Cg7Fh-23" vertex="1">
          <mxGeometry y="70" width="392" height="30" as="geometry" />
        </mxCell>
        <mxCell id="lq7LgunMjQ7Xtg1Cg7Fh-29" value="&lt;div style=&quot;background-color: rgb(248, 249, 250); font-size: 13px; line-height: 20px; white-space: pre;&quot;&gt;&lt;font face=&quot;Helvetica&quot;&gt;+ String() string // 格式化输出&lt;/font&gt;&lt;/div&gt;" style="text;html=1;align=left;verticalAlign=middle;whiteSpace=wrap;rounded=0;" parent="lq7LgunMjQ7Xtg1Cg7Fh-23" vertex="1">
          <mxGeometry y="100" width="392" height="30" as="geometry" />
        </mxCell>
        <mxCell id="lq7LgunMjQ7Xtg1Cg7Fh-33" value="" style="endArrow=diamondThin;endFill=0;endSize=24;html=1;rounded=0;exitX=0;exitY=0.25;exitDx=0;exitDy=0;entryX=1.019;entryY=0.3;entryDx=0;entryDy=0;entryPerimeter=0;" parent="WIyWlLk6GJQsqaUBKTNV-1" source="lq7LgunMjQ7Xtg1Cg7Fh-27" target="lq7LgunMjQ7Xtg1Cg7Fh-13" edge="1">
          <mxGeometry width="160" relative="1" as="geometry">
            <mxPoint x="330" y="1000" as="sourcePoint" />
            <mxPoint x="360" y="1050" as="targetPoint" />
          </mxGeometry>
        </mxCell>
        <mxCell id="lq7LgunMjQ7Xtg1Cg7Fh-34" value="&lt;font style=&quot;font-size: 15px;&quot;&gt;1:n&lt;/font&gt;" style="edgeLabel;html=1;align=center;verticalAlign=middle;resizable=0;points=[];" parent="lq7LgunMjQ7Xtg1Cg7Fh-33" vertex="1" connectable="0">
          <mxGeometry x="0.1223" y="-2" relative="1" as="geometry">
            <mxPoint as="offset" />
          </mxGeometry>
        </mxCell>
        <mxCell id="lq7LgunMjQ7Xtg1Cg7Fh-35" value="" style="endArrow=block;endSize=10;endFill=0;shadow=0;strokeWidth=1;rounded=0;curved=0;edgeStyle=elbowEdgeStyle;elbow=vertical;dashed=1;dashPattern=8 8;entryX=0.5;entryY=1;entryDx=0;entryDy=0;exitX=0.5;exitY=0;exitDx=0;exitDy=0;" parent="WIyWlLk6GJQsqaUBKTNV-1" source="lq7LgunMjQ7Xtg1Cg7Fh-36" target="lq7LgunMjQ7Xtg1Cg7Fh-23" edge="1">
          <mxGeometry width="160" relative="1" as="geometry">
            <mxPoint x="715.5" y="1181" as="sourcePoint" />
            <mxPoint x="710" y="1100" as="targetPoint" />
          </mxGeometry>
        </mxCell>
        <mxCell id="lq7LgunMjQ7Xtg1Cg7Fh-36" value="dispatch" style="swimlane;fontStyle=0;align=center;verticalAlign=top;childLayout=stackLayout;horizontal=1;startSize=26;horizontalStack=0;resizeParent=1;resizeLast=0;collapsible=1;marginBottom=0;rounded=0;shadow=0;strokeWidth=1;" parent="WIyWlLk6GJQsqaUBKTNV-1" vertex="1">
          <mxGeometry x="520" y="1190" width="390" height="298" as="geometry">
            <mxRectangle x="130" y="380" width="160" height="26" as="alternateBounds" />
          </mxGeometry>
        </mxCell>
        <mxCell id="lq7LgunMjQ7Xtg1Cg7Fh-37" value="- name string // 名称 [和配置的conf路径是一一对应的]" style="text;align=left;verticalAlign=top;spacingLeft=4;spacingRight=4;overflow=hidden;rotatable=0;points=[[0,0.5],[1,0.5]];portConstraint=eastwest;" parent="lq7LgunMjQ7Xtg1Cg7Fh-36" vertex="1">
          <mxGeometry y="26" width="390" height="26" as="geometry" />
        </mxCell>
        <mxCell id="lq7LgunMjQ7Xtg1Cg7Fh-38" value="- config *Config // 配置信息" style="text;align=left;verticalAlign=top;spacingLeft=4;spacingRight=4;overflow=hidden;rotatable=0;points=[[0,0.5],[1,0.5]];portConstraint=eastwest;rounded=0;shadow=0;html=0;fillColor=#ffe6cc;strokeColor=#d79b00;" parent="lq7LgunMjQ7Xtg1Cg7Fh-36" vertex="1">
          <mxGeometry y="52" width="390" height="26" as="geometry" />
        </mxCell>
        <mxCell id="lq7LgunMjQ7Xtg1Cg7Fh-39" value="- processorFactory ProcessorFacotry // 处理器生产" style="text;align=left;verticalAlign=top;spacingLeft=4;spacingRight=4;overflow=hidden;rotatable=0;points=[[0,0.5],[1,0.5]];portConstraint=eastwest;rounded=0;shadow=0;html=0;whiteSpace=wrap;fillColor=#f8cecc;strokeColor=#b85450;" parent="lq7LgunMjQ7Xtg1Cg7Fh-36" vertex="1">
          <mxGeometry y="78" width="390" height="32" as="geometry" />
        </mxCell>
        <mxCell id="lq7LgunMjQ7Xtg1Cg7Fh-40" value="- rootNode *treeNode // 根节点" style="text;align=left;verticalAlign=top;spacingLeft=4;spacingRight=4;overflow=hidden;rotatable=0;points=[[0,0.5],[1,0.5]];portConstraint=eastwest;rounded=0;shadow=0;html=0;fillColor=#dae8fc;strokeColor=#6c8ebf;" parent="lq7LgunMjQ7Xtg1Cg7Fh-36" vertex="1">
          <mxGeometry y="110" width="390" height="30" as="geometry" />
        </mxCell>
        <mxCell id="lq7LgunMjQ7Xtg1Cg7Fh-41" value="+ DataSet // 数据集合" style="text;align=left;verticalAlign=top;spacingLeft=4;spacingRight=4;overflow=hidden;rotatable=0;points=[[0,0.5],[1,0.5]];portConstraint=eastwest;rounded=0;shadow=0;html=0;fillColor=#e1d5e7;strokeColor=#9673a6;" parent="lq7LgunMjQ7Xtg1Cg7Fh-36" vertex="1">
          <mxGeometry y="140" width="390" height="30" as="geometry" />
        </mxCell>
        <mxCell id="lq7LgunMjQ7Xtg1Cg7Fh-44" value="" style="line;html=1;strokeWidth=1;align=left;verticalAlign=middle;spacingTop=-1;spacingLeft=3;spacingRight=3;rotatable=0;labelPosition=right;points=[];portConstraint=eastwest;" parent="lq7LgunMjQ7Xtg1Cg7Fh-36" vertex="1">
          <mxGeometry y="170" width="390" height="8" as="geometry" />
        </mxCell>
        <mxCell id="lq7LgunMjQ7Xtg1Cg7Fh-47" value="&lt;div style=&quot;background-color: rgb(248, 249, 250); font-size: 13px; line-height: 20px; white-space: pre;&quot;&gt;&lt;font face=&quot;Helvetica&quot;&gt;+ Run(*apiserver.Context) error //&lt;/font&gt;&lt;span style=&quot;font-style: italic;&quot;&gt; 执行所有注册的处理器&lt;/span&gt;&lt;/div&gt;" style="text;html=1;align=left;verticalAlign=middle;whiteSpace=wrap;rounded=0;" parent="lq7LgunMjQ7Xtg1Cg7Fh-36" vertex="1">
          <mxGeometry y="178" width="390" height="30" as="geometry" />
        </mxCell>
        <mxCell id="lq7LgunMjQ7Xtg1Cg7Fh-48" value="&lt;div style=&quot;background-color: rgb(248, 249, 250); font-size: 13px; line-height: 20px; white-space: pre;&quot;&gt;&lt;font face=&quot;Helvetica&quot;&gt;+ String() string // 格式化输出&lt;/font&gt;&lt;/div&gt;" style="text;html=1;align=left;verticalAlign=middle;whiteSpace=wrap;rounded=0;" parent="lq7LgunMjQ7Xtg1Cg7Fh-36" vertex="1">
          <mxGeometry y="208" width="390" height="30" as="geometry" />
        </mxCell>
        <mxCell id="lq7LgunMjQ7Xtg1Cg7Fh-82" value="&lt;div style=&quot;line-height: 20px;&quot;&gt;&lt;font style=&quot;font-size: 13px; white-space: pre; background-color: rgb(248, 249, 250);&quot; face=&quot;Helvetica&quot;&gt;- buildTree() error // 根据配置构建树&lt;/font&gt;&lt;/div&gt;" style="text;html=1;align=left;verticalAlign=middle;whiteSpace=wrap;rounded=0;" parent="lq7LgunMjQ7Xtg1Cg7Fh-36" vertex="1">
          <mxGeometry y="238" width="390" height="30" as="geometry" />
        </mxCell>
        <mxCell id="lq7LgunMjQ7Xtg1Cg7Fh-83" value="&lt;div style=&quot;line-height: 20px;&quot;&gt;&lt;font style=&quot;font-size: 13px; white-space: pre; background-color: rgb(248, 249, 250);&quot; face=&quot;Helvetica&quot;&gt;- loadConfig() error // 从Toml文件中加载配置信息&lt;/font&gt;&lt;/div&gt;" style="text;html=1;align=left;verticalAlign=middle;whiteSpace=wrap;rounded=0;" parent="lq7LgunMjQ7Xtg1Cg7Fh-36" vertex="1">
          <mxGeometry y="268" width="390" height="30" as="geometry" />
        </mxCell>
        <mxCell id="lq7LgunMjQ7Xtg1Cg7Fh-49" value="" style="endArrow=diamondThin;endFill=0;endSize=24;html=1;rounded=0;entryX=1;entryY=0.75;entryDx=0;entryDy=0;exitX=0;exitY=0.5;exitDx=0;exitDy=0;" parent="WIyWlLk6GJQsqaUBKTNV-1" source="lq7LgunMjQ7Xtg1Cg7Fh-55" target="lq7LgunMjQ7Xtg1Cg7Fh-26" edge="1">
          <mxGeometry width="160" relative="1" as="geometry">
            <mxPoint x="1210" y="980" as="sourcePoint" />
            <mxPoint x="920" y="1000.5" as="targetPoint" />
          </mxGeometry>
        </mxCell>
        <mxCell id="lq7LgunMjQ7Xtg1Cg7Fh-50" value="&lt;font style=&quot;font-size: 15px;&quot;&gt;1:1&lt;/font&gt;" style="edgeLabel;html=1;align=center;verticalAlign=middle;resizable=0;points=[];" parent="lq7LgunMjQ7Xtg1Cg7Fh-49" vertex="1" connectable="0">
          <mxGeometry x="0.1223" y="-2" relative="1" as="geometry">
            <mxPoint x="1" as="offset" />
          </mxGeometry>
        </mxCell>
        <mxCell id="lq7LgunMjQ7Xtg1Cg7Fh-52" value="" style="endArrow=diamondThin;endFill=0;endSize=24;html=1;rounded=0;entryX=1;entryY=0.5;entryDx=0;entryDy=0;exitX=0;exitY=0.5;exitDx=0;exitDy=0;" parent="WIyWlLk6GJQsqaUBKTNV-1" source="lq7LgunMjQ7Xtg1Cg7Fh-55" target="lq7LgunMjQ7Xtg1Cg7Fh-41" edge="1">
          <mxGeometry width="160" relative="1" as="geometry">
            <mxPoint x="1210" y="990" as="sourcePoint" />
            <mxPoint x="1037" y="1220" as="targetPoint" />
          </mxGeometry>
        </mxCell>
        <mxCell id="lq7LgunMjQ7Xtg1Cg7Fh-53" value="&lt;font style=&quot;font-size: 15px;&quot;&gt;1:1&lt;/font&gt;" style="edgeLabel;html=1;align=center;verticalAlign=middle;resizable=0;points=[];" parent="lq7LgunMjQ7Xtg1Cg7Fh-52" vertex="1" connectable="0">
          <mxGeometry x="0.1223" y="-2" relative="1" as="geometry">
            <mxPoint x="1" as="offset" />
          </mxGeometry>
        </mxCell>
        <mxCell id="lq7LgunMjQ7Xtg1Cg7Fh-54" value="《interface》&#xa;DataSet" style="swimlane;fontStyle=2;align=center;verticalAlign=top;childLayout=stackLayout;horizontal=1;startSize=40;horizontalStack=0;resizeParent=1;resizeLast=0;collapsible=1;marginBottom=0;rounded=0;shadow=0;strokeWidth=1;fillColor=#e1d5e7;strokeColor=#9673a6;" parent="WIyWlLk6GJQsqaUBKTNV-1" vertex="1">
          <mxGeometry x="1220" y="921" width="392" height="160" as="geometry">
            <mxRectangle x="190" y="630" width="160" height="26" as="alternateBounds" />
          </mxGeometry>
        </mxCell>
        <mxCell id="lq7LgunMjQ7Xtg1Cg7Fh-55" value="+&lt;font style=&quot;font-size: 13px;&quot;&gt;&amp;nbsp;Set(key string, data interface{}) DataSet&lt;/font&gt;" style="text;html=1;align=left;verticalAlign=middle;whiteSpace=wrap;rounded=0;" parent="lq7LgunMjQ7Xtg1Cg7Fh-54" vertex="1">
          <mxGeometry y="40" width="392" height="30" as="geometry" />
        </mxCell>
        <mxCell id="lq7LgunMjQ7Xtg1Cg7Fh-56" value="&lt;div style=&quot;font-size: 13px; line-height: 20px; white-space: pre;&quot;&gt;&lt;span style=&quot;background-color: rgb(248, 249, 250);&quot;&gt;&lt;font face=&quot;Helvetica&quot;&gt;&lt;font style=&quot;font-size: 13px;&quot;&gt;+ &lt;/font&gt;&lt;span style=&quot;white-space: normal;&quot;&gt;Get&lt;/span&gt;&lt;span style=&quot;white-space: normal;&quot;&gt;(key &lt;/span&gt;&lt;span style=&quot;white-space: normal;&quot;&gt;string&lt;/span&gt;&lt;span style=&quot;white-space: normal;&quot;&gt;) (data &lt;/span&gt;&lt;span style=&quot;white-space: normal;&quot;&gt;interface&lt;/span&gt;&lt;span style=&quot;white-space: normal;&quot;&gt;{}&lt;/span&gt;&lt;span style=&quot;white-space: normal;&quot;&gt;, &lt;/span&gt;&lt;span style=&quot;white-space: normal;&quot;&gt;ok &lt;/span&gt;&lt;span style=&quot;white-space: normal;&quot;&gt;bool&lt;/span&gt;&lt;span style=&quot;white-space: normal;&quot;&gt;)&lt;/span&gt;&lt;/font&gt;&lt;/span&gt;&lt;/div&gt;" style="text;html=1;align=left;verticalAlign=middle;whiteSpace=wrap;rounded=0;" parent="lq7LgunMjQ7Xtg1Cg7Fh-54" vertex="1">
          <mxGeometry y="70" width="392" height="30" as="geometry" />
        </mxCell>
        <mxCell id="lq7LgunMjQ7Xtg1Cg7Fh-57" value="&lt;div style=&quot;background-color: rgb(248, 249, 250); font-size: 13px; line-height: 20px; white-space: pre;&quot;&gt;&lt;font face=&quot;Helvetica&quot;&gt;+ Str() string // 格式化输出&lt;/font&gt;&lt;/div&gt;" style="text;html=1;align=left;verticalAlign=middle;whiteSpace=wrap;rounded=0;" parent="lq7LgunMjQ7Xtg1Cg7Fh-54" vertex="1">
          <mxGeometry y="100" width="392" height="30" as="geometry" />
        </mxCell>
        <mxCell id="lq7LgunMjQ7Xtg1Cg7Fh-58" value="&lt;div style=&quot;font-size: 13px; line-height: 20px; white-space: pre;&quot;&gt;&lt;font style=&quot;font-size: 13px;&quot; face=&quot;Helvetica&quot;&gt;+ Reset()  // &lt;/font&gt;&lt;span style=&quot;white-space: normal;&quot;&gt;序列化&lt;/span&gt;&lt;span style=&quot;white-space: normal;&quot;&gt;dataset&lt;/span&gt;&lt;/div&gt;" style="text;html=1;align=left;verticalAlign=middle;whiteSpace=wrap;rounded=0;" parent="lq7LgunMjQ7Xtg1Cg7Fh-54" vertex="1">
          <mxGeometry y="130" width="392" height="30" as="geometry" />
        </mxCell>
        <mxCell id="lq7LgunMjQ7Xtg1Cg7Fh-59" value="" style="endArrow=block;endSize=10;endFill=0;shadow=0;strokeWidth=1;rounded=0;curved=0;edgeStyle=elbowEdgeStyle;elbow=vertical;dashed=1;dashPattern=8 8;entryX=0.5;entryY=1;entryDx=0;entryDy=0;exitX=0.5;exitY=0;exitDx=0;exitDy=0;" parent="WIyWlLk6GJQsqaUBKTNV-1" source="lq7LgunMjQ7Xtg1Cg7Fh-60" target="lq7LgunMjQ7Xtg1Cg7Fh-58" edge="1">
          <mxGeometry width="160" relative="1" as="geometry">
            <mxPoint x="1416" y="1180" as="sourcePoint" />
            <mxPoint x="1380" y="1140" as="targetPoint" />
          </mxGeometry>
        </mxCell>
        <mxCell id="lq7LgunMjQ7Xtg1Cg7Fh-60" value="dataSet" style="swimlane;fontStyle=0;align=center;verticalAlign=top;childLayout=stackLayout;horizontal=1;startSize=26;horizontalStack=0;resizeParent=1;resizeLast=0;collapsible=1;marginBottom=0;rounded=0;shadow=0;strokeWidth=1;" parent="WIyWlLk6GJQsqaUBKTNV-1" vertex="1">
          <mxGeometry x="1220" y="1160" width="390" height="220" as="geometry">
            <mxRectangle x="130" y="380" width="160" height="26" as="alternateBounds" />
          </mxGeometry>
        </mxCell>
        <mxCell id="lq7LgunMjQ7Xtg1Cg7Fh-61" value="- mdLock sync.RWMutex // 读写锁" style="text;align=left;verticalAlign=top;spacingLeft=4;spacingRight=4;overflow=hidden;rotatable=0;points=[[0,0.5],[1,0.5]];portConstraint=eastwest;" parent="lq7LgunMjQ7Xtg1Cg7Fh-60" vertex="1">
          <mxGeometry y="26" width="390" height="26" as="geometry" />
        </mxCell>
        <mxCell id="lq7LgunMjQ7Xtg1Cg7Fh-62" value="- md     map[string]interface{} // 存储map" style="text;align=left;verticalAlign=top;spacingLeft=4;spacingRight=4;overflow=hidden;rotatable=0;points=[[0,0.5],[1,0.5]];portConstraint=eastwest;rounded=0;shadow=0;html=0;" parent="lq7LgunMjQ7Xtg1Cg7Fh-60" vertex="1">
          <mxGeometry y="52" width="390" height="26" as="geometry" />
        </mxCell>
        <mxCell id="lq7LgunMjQ7Xtg1Cg7Fh-66" value="" style="line;html=1;strokeWidth=1;align=left;verticalAlign=middle;spacingTop=-1;spacingLeft=3;spacingRight=3;rotatable=0;labelPosition=right;points=[];portConstraint=eastwest;" parent="lq7LgunMjQ7Xtg1Cg7Fh-60" vertex="1">
          <mxGeometry y="78" width="390" height="8" as="geometry" />
        </mxCell>
        <mxCell id="lq7LgunMjQ7Xtg1Cg7Fh-69" value="+&lt;font style=&quot;font-size: 13px;&quot;&gt;&amp;nbsp;Set(key string, data interface{}) DataSet&lt;/font&gt;" style="text;html=1;align=left;verticalAlign=middle;whiteSpace=wrap;rounded=0;" parent="lq7LgunMjQ7Xtg1Cg7Fh-60" vertex="1">
          <mxGeometry y="86" width="390" height="30" as="geometry" />
        </mxCell>
        <mxCell id="lq7LgunMjQ7Xtg1Cg7Fh-72" value="&lt;div style=&quot;font-size: 13px; line-height: 20px; white-space: pre;&quot;&gt;&lt;font style=&quot;font-size: 13px;&quot; face=&quot;Helvetica&quot;&gt;+ Reset()  // &lt;/font&gt;&lt;span style=&quot;white-space: normal;&quot;&gt;序列化&lt;/span&gt;&lt;span style=&quot;white-space: normal;&quot;&gt;dataset&lt;/span&gt;&lt;/div&gt;" style="text;html=1;align=left;verticalAlign=middle;whiteSpace=wrap;rounded=0;" parent="lq7LgunMjQ7Xtg1Cg7Fh-60" vertex="1">
          <mxGeometry y="116" width="390" height="30" as="geometry" />
        </mxCell>
        <mxCell id="lq7LgunMjQ7Xtg1Cg7Fh-71" value="&lt;div style=&quot;background-color: rgb(248, 249, 250); font-size: 13px; line-height: 20px; white-space: pre;&quot;&gt;&lt;font face=&quot;Helvetica&quot;&gt;+ Str() string // 格式化输出&lt;/font&gt;&lt;/div&gt;" style="text;html=1;align=left;verticalAlign=middle;whiteSpace=wrap;rounded=0;" parent="lq7LgunMjQ7Xtg1Cg7Fh-60" vertex="1">
          <mxGeometry y="146" width="390" height="30" as="geometry" />
        </mxCell>
        <mxCell id="lq7LgunMjQ7Xtg1Cg7Fh-70" value="&lt;div style=&quot;font-size: 13px; line-height: 20px; white-space: pre;&quot;&gt;&lt;span style=&quot;background-color: rgb(248, 249, 250);&quot;&gt;&lt;font face=&quot;Helvetica&quot;&gt;&lt;font style=&quot;font-size: 13px;&quot;&gt;+ &lt;/font&gt;&lt;span style=&quot;white-space: normal;&quot;&gt;Get&lt;/span&gt;&lt;span style=&quot;white-space: normal;&quot;&gt;(key &lt;/span&gt;&lt;span style=&quot;white-space: normal;&quot;&gt;string&lt;/span&gt;&lt;span style=&quot;white-space: normal;&quot;&gt;) (data &lt;/span&gt;&lt;span style=&quot;white-space: normal;&quot;&gt;interface&lt;/span&gt;&lt;span style=&quot;white-space: normal;&quot;&gt;{}&lt;/span&gt;&lt;span style=&quot;white-space: normal;&quot;&gt;, &lt;/span&gt;&lt;span style=&quot;white-space: normal;&quot;&gt;ok &lt;/span&gt;&lt;span style=&quot;white-space: normal;&quot;&gt;bool&lt;/span&gt;&lt;span style=&quot;white-space: normal;&quot;&gt;)&lt;/span&gt;&lt;/font&gt;&lt;/span&gt;&lt;/div&gt;" style="text;html=1;align=left;verticalAlign=middle;whiteSpace=wrap;rounded=0;" parent="lq7LgunMjQ7Xtg1Cg7Fh-60" vertex="1">
          <mxGeometry y="176" width="390" height="30" as="geometry" />
        </mxCell>
        <mxCell id="lq7LgunMjQ7Xtg1Cg7Fh-73" value="Config" style="swimlane;fontStyle=0;align=center;verticalAlign=top;childLayout=stackLayout;horizontal=1;startSize=26;horizontalStack=0;resizeParent=1;resizeLast=0;collapsible=1;marginBottom=0;rounded=0;shadow=0;strokeWidth=1;" parent="WIyWlLk6GJQsqaUBKTNV-1" vertex="1">
          <mxGeometry x="90" y="1200" width="300" height="160" as="geometry">
            <mxRectangle x="130" y="380" width="160" height="26" as="alternateBounds" />
          </mxGeometry>
        </mxCell>
        <mxCell id="lq7LgunMjQ7Xtg1Cg7Fh-74" value="+ Name       string // 名称" style="text;align=left;verticalAlign=top;spacingLeft=4;spacingRight=4;overflow=hidden;rotatable=0;points=[[0,0.5],[1,0.5]];portConstraint=eastwest;" parent="lq7LgunMjQ7Xtg1Cg7Fh-73" vertex="1">
          <mxGeometry y="26" width="300" height="26" as="geometry" />
        </mxCell>
        <mxCell id="lq7LgunMjQ7Xtg1Cg7Fh-75" value="+ Processors []ProcessConfig // 配置信息" style="text;align=left;verticalAlign=top;spacingLeft=4;spacingRight=4;overflow=hidden;rotatable=0;points=[[0,0.5],[1,0.5]];portConstraint=eastwest;rounded=0;shadow=0;html=0;fillColor=#fff2cc;strokeColor=#d6b656;" parent="lq7LgunMjQ7Xtg1Cg7Fh-73" vertex="1">
          <mxGeometry y="52" width="300" height="26" as="geometry" />
        </mxCell>
        <mxCell id="lq7LgunMjQ7Xtg1Cg7Fh-79" value="" style="line;html=1;strokeWidth=1;align=left;verticalAlign=middle;spacingTop=-1;spacingLeft=3;spacingRight=3;rotatable=0;labelPosition=right;points=[];portConstraint=eastwest;" parent="lq7LgunMjQ7Xtg1Cg7Fh-73" vertex="1">
          <mxGeometry y="78" width="300" height="8" as="geometry" />
        </mxCell>
        <mxCell id="lq7LgunMjQ7Xtg1Cg7Fh-84" value="" style="endArrow=diamondThin;endFill=0;endSize=24;html=1;rounded=0;entryX=0;entryY=0.5;entryDx=0;entryDy=0;exitX=1;exitY=0.5;exitDx=0;exitDy=0;" parent="WIyWlLk6GJQsqaUBKTNV-1" source="lq7LgunMjQ7Xtg1Cg7Fh-75" target="lq7LgunMjQ7Xtg1Cg7Fh-38" edge="1">
          <mxGeometry width="160" relative="1" as="geometry">
            <mxPoint x="508" y="1310" as="sourcePoint" />
            <mxPoint x="198" y="1673" as="targetPoint" />
          </mxGeometry>
        </mxCell>
        <mxCell id="lq7LgunMjQ7Xtg1Cg7Fh-85" value="&lt;font style=&quot;font-size: 15px;&quot;&gt;1:1&lt;/font&gt;" style="edgeLabel;html=1;align=center;verticalAlign=middle;resizable=0;points=[];" parent="lq7LgunMjQ7Xtg1Cg7Fh-84" vertex="1" connectable="0">
          <mxGeometry x="0.1223" y="-2" relative="1" as="geometry">
            <mxPoint x="1" as="offset" />
          </mxGeometry>
        </mxCell>
        <mxCell id="lq7LgunMjQ7Xtg1Cg7Fh-86" value="ProcessConfig" style="swimlane;fontStyle=0;align=center;verticalAlign=top;childLayout=stackLayout;horizontal=1;startSize=26;horizontalStack=0;resizeParent=1;resizeLast=0;collapsible=1;marginBottom=0;rounded=0;shadow=0;strokeWidth=1;fillColor=#fff2cc;strokeColor=#d6b656;" parent="WIyWlLk6GJQsqaUBKTNV-1" vertex="1">
          <mxGeometry x="-350" y="1190" width="300" height="160" as="geometry">
            <mxRectangle x="130" y="380" width="160" height="26" as="alternateBounds" />
          </mxGeometry>
        </mxCell>
        <mxCell id="lq7LgunMjQ7Xtg1Cg7Fh-87" value="+ ID    int8" style="text;align=left;verticalAlign=top;spacingLeft=4;spacingRight=4;overflow=hidden;rotatable=0;points=[[0,0.5],[1,0.5]];portConstraint=eastwest;" parent="lq7LgunMjQ7Xtg1Cg7Fh-86" vertex="1">
          <mxGeometry y="26" width="300" height="26" as="geometry" />
        </mxCell>
        <mxCell id="lq7LgunMjQ7Xtg1Cg7Fh-88" value="+ PID   int8" style="text;align=left;verticalAlign=top;spacingLeft=4;spacingRight=4;overflow=hidden;rotatable=0;points=[[0,0.5],[1,0.5]];portConstraint=eastwest;rounded=0;shadow=0;html=0;" parent="lq7LgunMjQ7Xtg1Cg7Fh-86" vertex="1">
          <mxGeometry y="52" width="300" height="26" as="geometry" />
        </mxCell>
        <mxCell id="lq7LgunMjQ7Xtg1Cg7Fh-90" value="+ Level int8" style="text;align=left;verticalAlign=top;spacingLeft=4;spacingRight=4;overflow=hidden;rotatable=0;points=[[0,0.5],[1,0.5]];portConstraint=eastwest;rounded=0;shadow=0;html=0;" parent="lq7LgunMjQ7Xtg1Cg7Fh-86" vertex="1">
          <mxGeometry y="78" width="300" height="26" as="geometry" />
        </mxCell>
        <mxCell id="lq7LgunMjQ7Xtg1Cg7Fh-91" value="+ Name  ProcessorType（string）" style="text;align=left;verticalAlign=top;spacingLeft=4;spacingRight=4;overflow=hidden;rotatable=0;points=[[0,0.5],[1,0.5]];portConstraint=eastwest;rounded=0;shadow=0;html=0;" parent="lq7LgunMjQ7Xtg1Cg7Fh-86" vertex="1">
          <mxGeometry y="104" width="300" height="26" as="geometry" />
        </mxCell>
        <mxCell id="lq7LgunMjQ7Xtg1Cg7Fh-89" value="" style="line;html=1;strokeWidth=1;align=left;verticalAlign=middle;spacingTop=-1;spacingLeft=3;spacingRight=3;rotatable=0;labelPosition=right;points=[];portConstraint=eastwest;" parent="lq7LgunMjQ7Xtg1Cg7Fh-86" vertex="1">
          <mxGeometry y="130" width="300" height="8" as="geometry" />
        </mxCell>
        <mxCell id="lq7LgunMjQ7Xtg1Cg7Fh-92" value="" style="endArrow=diamondThin;endFill=0;endSize=24;html=1;rounded=0;entryX=0;entryY=0.5;entryDx=0;entryDy=0;exitX=1;exitY=0.5;exitDx=0;exitDy=0;" parent="WIyWlLk6GJQsqaUBKTNV-1" source="lq7LgunMjQ7Xtg1Cg7Fh-90" target="lq7LgunMjQ7Xtg1Cg7Fh-75" edge="1">
          <mxGeometry width="160" relative="1" as="geometry">
            <mxPoint x="-80" y="1360" as="sourcePoint" />
            <mxPoint x="50" y="1350" as="targetPoint" />
          </mxGeometry>
        </mxCell>
        <mxCell id="lq7LgunMjQ7Xtg1Cg7Fh-93" value="&lt;font style=&quot;font-size: 15px;&quot;&gt;n:1&lt;/font&gt;" style="edgeLabel;html=1;align=center;verticalAlign=middle;resizable=0;points=[];" parent="lq7LgunMjQ7Xtg1Cg7Fh-92" vertex="1" connectable="0">
          <mxGeometry x="0.1223" y="-2" relative="1" as="geometry">
            <mxPoint x="1" as="offset" />
          </mxGeometry>
        </mxCell>
        <mxCell id="lq7LgunMjQ7Xtg1Cg7Fh-94" value="treeNode" style="swimlane;fontStyle=0;align=center;verticalAlign=top;childLayout=stackLayout;horizontal=1;startSize=26;horizontalStack=0;resizeParent=1;resizeLast=0;collapsible=1;marginBottom=0;rounded=0;shadow=0;strokeWidth=1;fillColor=#dae8fc;strokeColor=#6c8ebf;" parent="WIyWlLk6GJQsqaUBKTNV-1" vertex="1">
          <mxGeometry x="20" y="1456" width="390" height="276" as="geometry">
            <mxRectangle x="130" y="380" width="160" height="26" as="alternateBounds" />
          </mxGeometry>
        </mxCell>
        <mxCell id="lq7LgunMjQ7Xtg1Cg7Fh-95" value="- value    *BaseProcessor " style="text;align=left;verticalAlign=top;spacingLeft=4;spacingRight=4;overflow=hidden;rotatable=0;points=[[0,0.5],[1,0.5]];portConstraint=eastwest;fillColor=#f8cecc;strokeColor=#b85450;" parent="lq7LgunMjQ7Xtg1Cg7Fh-94" vertex="1">
          <mxGeometry y="26" width="390" height="26" as="geometry" />
        </mxCell>
        <mxCell id="lq7LgunMjQ7Xtg1Cg7Fh-96" value="- children []*treeNode" style="text;align=left;verticalAlign=top;spacingLeft=4;spacingRight=4;overflow=hidden;rotatable=0;points=[[0,0.5],[1,0.5]];portConstraint=eastwest;rounded=0;shadow=0;html=0;fillColor=#dae8fc;strokeColor=#6c8ebf;" parent="lq7LgunMjQ7Xtg1Cg7Fh-94" vertex="1">
          <mxGeometry y="52" width="390" height="26" as="geometry" />
        </mxCell>
        <mxCell id="lq7LgunMjQ7Xtg1Cg7Fh-100" value="" style="line;html=1;strokeWidth=1;align=left;verticalAlign=middle;spacingTop=-1;spacingLeft=3;spacingRight=3;rotatable=0;labelPosition=right;points=[];portConstraint=eastwest;" parent="lq7LgunMjQ7Xtg1Cg7Fh-94" vertex="1">
          <mxGeometry y="78" width="390" height="8" as="geometry" />
        </mxCell>
        <mxCell id="lq7LgunMjQ7Xtg1Cg7Fh-104" value="&lt;div style=&quot;line-height: 20px;&quot;&gt;&lt;font style=&quot;font-size: 13px; white-space: pre; background-color: rgb(248, 249, 250);&quot; face=&quot;Helvetica&quot;&gt;+ addChild(nt *treeNode) *treeNode&lt;/font&gt;&lt;/div&gt;" style="text;html=1;align=left;verticalAlign=middle;whiteSpace=wrap;rounded=0;" parent="lq7LgunMjQ7Xtg1Cg7Fh-94" vertex="1">
          <mxGeometry y="86" width="390" height="30" as="geometry" />
        </mxCell>
        <mxCell id="lq7LgunMjQ7Xtg1Cg7Fh-105" value="" style="endArrow=diamondThin;endFill=0;endSize=24;html=1;rounded=0;entryX=0;entryY=0.5;entryDx=0;entryDy=0;exitX=1;exitY=0.5;exitDx=0;exitDy=0;" parent="WIyWlLk6GJQsqaUBKTNV-1" source="lq7LgunMjQ7Xtg1Cg7Fh-94" target="lq7LgunMjQ7Xtg1Cg7Fh-40" edge="1">
          <mxGeometry width="160" relative="1" as="geometry">
            <mxPoint x="470" y="1610" as="sourcePoint" />
            <mxPoint x="600" y="1600" as="targetPoint" />
          </mxGeometry>
        </mxCell>
        <mxCell id="lq7LgunMjQ7Xtg1Cg7Fh-106" value="&lt;font style=&quot;font-size: 15px;&quot;&gt;1:1&lt;/font&gt;" style="edgeLabel;html=1;align=center;verticalAlign=middle;resizable=0;points=[];" parent="lq7LgunMjQ7Xtg1Cg7Fh-105" vertex="1" connectable="0">
          <mxGeometry x="0.1223" y="-2" relative="1" as="geometry">
            <mxPoint x="1" as="offset" />
          </mxGeometry>
        </mxCell>
        <mxCell id="lq7LgunMjQ7Xtg1Cg7Fh-107" value="BaseProcessor" style="swimlane;fontStyle=0;align=center;verticalAlign=top;childLayout=stackLayout;horizontal=1;startSize=26;horizontalStack=0;resizeParent=1;resizeLast=0;collapsible=1;marginBottom=0;rounded=0;shadow=0;strokeWidth=1;fillColor=#f8cecc;strokeColor=#b85450;" parent="WIyWlLk6GJQsqaUBKTNV-1" vertex="1">
          <mxGeometry x="-580" y="1440" width="390" height="206" as="geometry">
            <mxRectangle x="130" y="380" width="160" height="26" as="alternateBounds" />
          </mxGeometry>
        </mxCell>
        <mxCell id="lq7LgunMjQ7Xtg1Cg7Fh-108" value="- config ProcessConfig " style="text;align=left;verticalAlign=top;spacingLeft=4;spacingRight=4;overflow=hidden;rotatable=0;points=[[0,0.5],[1,0.5]];portConstraint=eastwest;fillColor=#fff2cc;strokeColor=#d6b656;" parent="lq7LgunMjQ7Xtg1Cg7Fh-107" vertex="1">
          <mxGeometry y="26" width="390" height="26" as="geometry" />
        </mxCell>
        <mxCell id="lq7LgunMjQ7Xtg1Cg7Fh-109" value="- processor Processor // 处理器基类" style="text;align=left;verticalAlign=top;spacingLeft=4;spacingRight=4;overflow=hidden;rotatable=0;points=[[0,0.5],[1,0.5]];portConstraint=eastwest;rounded=0;shadow=0;html=0;fillColor=#d5e8d4;strokeColor=#82b366;" parent="lq7LgunMjQ7Xtg1Cg7Fh-107" vertex="1">
          <mxGeometry y="52" width="390" height="26" as="geometry" />
        </mxCell>
        <mxCell id="lq7LgunMjQ7Xtg1Cg7Fh-110" value="" style="line;html=1;strokeWidth=1;align=left;verticalAlign=middle;spacingTop=-1;spacingLeft=3;spacingRight=3;rotatable=0;labelPosition=right;points=[];portConstraint=eastwest;" parent="lq7LgunMjQ7Xtg1Cg7Fh-107" vertex="1">
          <mxGeometry y="78" width="390" height="8" as="geometry" />
        </mxCell>
        <mxCell id="lq7LgunMjQ7Xtg1Cg7Fh-111" value="&lt;div style=&quot;line-height: 20px; font-size: 13px;&quot;&gt;&lt;font face=&quot;Helvetica&quot;&gt;&lt;font style=&quot;font-size: 13px; white-space: pre;&quot;&gt;+ &lt;/font&gt;GetName() ProcessorType&lt;/font&gt;&lt;/div&gt;" style="text;html=1;align=left;verticalAlign=middle;whiteSpace=wrap;rounded=0;" parent="lq7LgunMjQ7Xtg1Cg7Fh-107" vertex="1">
          <mxGeometry y="86" width="390" height="30" as="geometry" />
        </mxCell>
        <mxCell id="lq7LgunMjQ7Xtg1Cg7Fh-117" value="&lt;div style=&quot;line-height: 20px; font-size: 13px;&quot;&gt;&lt;font face=&quot;Helvetica&quot;&gt;&lt;font style=&quot;font-size: 13px;&quot;&gt;&lt;font style=&quot;font-size: 13px; white-space: pre;&quot;&gt;+ &lt;/font&gt;&lt;/font&gt;SetBaseConfig(config ProcessConfig)&lt;/font&gt;&lt;/div&gt;" style="text;html=1;align=left;verticalAlign=middle;whiteSpace=wrap;rounded=0;" parent="lq7LgunMjQ7Xtg1Cg7Fh-107" vertex="1">
          <mxGeometry y="116" width="390" height="30" as="geometry" />
        </mxCell>
        <mxCell id="lq7LgunMjQ7Xtg1Cg7Fh-118" value="&lt;div style=&quot;line-height: 20px; font-size: 13px;&quot;&gt;&lt;font style=&quot;font-size: 13px;&quot; face=&quot;Helvetica&quot;&gt;&lt;font style=&quot;font-size: 13px;&quot;&gt;&lt;font style=&quot;font-size: 13px; white-space: pre;&quot;&gt;+ &lt;/font&gt;&lt;/font&gt;&lt;/font&gt;BeforeProcess 处理器处理前置方法&lt;/div&gt;" style="text;html=1;align=left;verticalAlign=middle;whiteSpace=wrap;rounded=0;" parent="lq7LgunMjQ7Xtg1Cg7Fh-107" vertex="1">
          <mxGeometry y="146" width="390" height="30" as="geometry" />
        </mxCell>
        <mxCell id="lq7LgunMjQ7Xtg1Cg7Fh-119" value="&lt;div style=&quot;line-height: 20px; font-size: 13px;&quot;&gt;&lt;font face=&quot;Helvetica&quot;&gt;&lt;font style=&quot;font-size: 13px;&quot;&gt;&lt;font style=&quot;font-size: 13px;&quot;&gt;&lt;font style=&quot;font-size: 13px; white-space: pre;&quot;&gt;+ &lt;/font&gt;&lt;/font&gt;&lt;/font&gt;AfterProcess 处理器处理后置方法&lt;/font&gt;&lt;/div&gt;" style="text;html=1;align=left;verticalAlign=middle;whiteSpace=wrap;rounded=0;" parent="lq7LgunMjQ7Xtg1Cg7Fh-107" vertex="1">
          <mxGeometry y="176" width="390" height="30" as="geometry" />
        </mxCell>
        <mxCell id="lq7LgunMjQ7Xtg1Cg7Fh-112" value="" style="endArrow=diamondThin;endFill=0;endSize=24;html=1;rounded=0;exitX=1;exitY=0.5;exitDx=0;exitDy=0;entryX=0;entryY=0.5;entryDx=0;entryDy=0;" parent="WIyWlLk6GJQsqaUBKTNV-1" source="lq7LgunMjQ7Xtg1Cg7Fh-107" target="lq7LgunMjQ7Xtg1Cg7Fh-95" edge="1">
          <mxGeometry width="160" relative="1" as="geometry">
            <mxPoint x="-50" y="1908" as="sourcePoint" />
            <mxPoint x="60" y="1690" as="targetPoint" />
          </mxGeometry>
        </mxCell>
        <mxCell id="lq7LgunMjQ7Xtg1Cg7Fh-113" value="&lt;font style=&quot;font-size: 15px;&quot;&gt;1:1&lt;/font&gt;" style="edgeLabel;html=1;align=center;verticalAlign=middle;resizable=0;points=[];" parent="lq7LgunMjQ7Xtg1Cg7Fh-112" vertex="1" connectable="0">
          <mxGeometry x="0.1223" y="-2" relative="1" as="geometry">
            <mxPoint x="1" as="offset" />
          </mxGeometry>
        </mxCell>
        <mxCell id="lq7LgunMjQ7Xtg1Cg7Fh-114" value="" style="endArrow=diamondThin;endFill=0;endSize=24;html=1;rounded=0;entryX=1;entryY=0.25;entryDx=0;entryDy=0;exitX=0.75;exitY=1;exitDx=0;exitDy=0;" parent="WIyWlLk6GJQsqaUBKTNV-1" source="lq7LgunMjQ7Xtg1Cg7Fh-86" target="lq7LgunMjQ7Xtg1Cg7Fh-107" edge="1">
          <mxGeometry width="160" relative="1" as="geometry">
            <mxPoint x="-60" y="1396" as="sourcePoint" />
            <mxPoint x="80" y="1380" as="targetPoint" />
          </mxGeometry>
        </mxCell>
        <mxCell id="lq7LgunMjQ7Xtg1Cg7Fh-115" value="&lt;font style=&quot;font-size: 15px;&quot;&gt;1:1&lt;/font&gt;" style="edgeLabel;html=1;align=center;verticalAlign=middle;resizable=0;points=[];" parent="lq7LgunMjQ7Xtg1Cg7Fh-114" vertex="1" connectable="0">
          <mxGeometry x="0.1223" y="-2" relative="1" as="geometry">
            <mxPoint x="1" as="offset" />
          </mxGeometry>
        </mxCell>
        <mxCell id="lq7LgunMjQ7Xtg1Cg7Fh-120" value="" style="endArrow=diamondThin;endFill=0;endSize=24;html=1;rounded=0;entryX=0;entryY=0.5;entryDx=0;entryDy=0;exitX=1.005;exitY=0.144;exitDx=0;exitDy=0;exitPerimeter=0;" parent="WIyWlLk6GJQsqaUBKTNV-1" source="lq7LgunMjQ7Xtg1Cg7Fh-130" target="lq7LgunMjQ7Xtg1Cg7Fh-109" edge="1">
          <mxGeometry width="160" relative="1" as="geometry">
            <mxPoint x="-830" y="1580" as="sourcePoint" />
            <mxPoint x="-700" y="1560" as="targetPoint" />
          </mxGeometry>
        </mxCell>
        <mxCell id="lq7LgunMjQ7Xtg1Cg7Fh-121" value="&lt;font style=&quot;font-size: 15px;&quot;&gt;1:1&lt;/font&gt;" style="edgeLabel;html=1;align=center;verticalAlign=middle;resizable=0;points=[];" parent="lq7LgunMjQ7Xtg1Cg7Fh-120" vertex="1" connectable="0">
          <mxGeometry x="0.1223" y="-2" relative="1" as="geometry">
            <mxPoint x="1" as="offset" />
          </mxGeometry>
        </mxCell>
        <mxCell id="lq7LgunMjQ7Xtg1Cg7Fh-130" value="《interface》&#xa;Processor" style="swimlane;fontStyle=2;align=center;verticalAlign=top;childLayout=stackLayout;horizontal=1;startSize=40;horizontalStack=0;resizeParent=1;resizeLast=0;collapsible=1;marginBottom=0;rounded=0;shadow=0;strokeWidth=1;fillColor=#d5e8d4;strokeColor=#82b366;" parent="WIyWlLk6GJQsqaUBKTNV-1" vertex="1">
          <mxGeometry x="-1190" y="1448" width="390" height="190" as="geometry">
            <mxRectangle x="190" y="630" width="160" height="26" as="alternateBounds" />
          </mxGeometry>
        </mxCell>
        <mxCell id="lq7LgunMjQ7Xtg1Cg7Fh-132" value="&lt;div style=&quot;background-color: rgb(248, 249, 250); font-size: 13px; line-height: 20px; white-space: pre;&quot;&gt;&lt;font face=&quot;Helvetica&quot;&gt;+ GetName() ProcessorType&lt;/font&gt;&lt;/div&gt;" style="text;html=1;align=left;verticalAlign=middle;whiteSpace=wrap;rounded=0;" parent="lq7LgunMjQ7Xtg1Cg7Fh-130" vertex="1">
          <mxGeometry y="40" width="390" height="30" as="geometry" />
        </mxCell>
        <mxCell id="lq7LgunMjQ7Xtg1Cg7Fh-133" value="&lt;div style=&quot;background-color: rgb(248, 249, 250); font-size: 13px; line-height: 20px; white-space: pre;&quot;&gt;&lt;font face=&quot;Helvetica&quot;&gt;+ SetBaseConfig(ProcessConfig)&lt;/font&gt;&lt;/div&gt;" style="text;html=1;align=left;verticalAlign=middle;whiteSpace=wrap;rounded=0;" parent="lq7LgunMjQ7Xtg1Cg7Fh-130" vertex="1">
          <mxGeometry y="70" width="390" height="30" as="geometry" />
        </mxCell>
        <mxCell id="lq7LgunMjQ7Xtg1Cg7Fh-134" value="&lt;div style=&quot;background-color: rgb(248, 249, 250); font-size: 13px; line-height: 20px; white-space: pre;&quot;&gt;&lt;font face=&quot;Helvetica&quot;&gt;+ BeforeProcess()&lt;/font&gt;&lt;/div&gt;" style="text;html=1;align=left;verticalAlign=middle;whiteSpace=wrap;rounded=0;" parent="lq7LgunMjQ7Xtg1Cg7Fh-130" vertex="1">
          <mxGeometry y="100" width="390" height="30" as="geometry" />
        </mxCell>
        <mxCell id="lq7LgunMjQ7Xtg1Cg7Fh-135" value="&lt;div style=&quot;background-color: rgb(248, 249, 250); font-size: 13px; line-height: 20px; white-space: pre;&quot;&gt;&lt;font face=&quot;Helvetica&quot;&gt;+ AfterProcess()&lt;/font&gt;&lt;/div&gt;" style="text;html=1;align=left;verticalAlign=middle;whiteSpace=wrap;rounded=0;" parent="lq7LgunMjQ7Xtg1Cg7Fh-130" vertex="1">
          <mxGeometry y="130" width="390" height="30" as="geometry" />
        </mxCell>
        <mxCell id="lq7LgunMjQ7Xtg1Cg7Fh-136" value="&lt;div style=&quot;background-color: rgb(248, 249, 250); font-size: 13px; line-height: 20px; white-space: pre;&quot;&gt;&lt;font face=&quot;Helvetica&quot;&gt;+ Process(ctx *Context context, dataSet DataSet)&lt;/font&gt;&lt;/div&gt;" style="text;html=1;align=left;verticalAlign=middle;whiteSpace=wrap;rounded=0;" parent="lq7LgunMjQ7Xtg1Cg7Fh-130" vertex="1">
          <mxGeometry y="160" width="390" height="30" as="geometry" />
        </mxCell>
        <mxCell id="lq7LgunMjQ7Xtg1Cg7Fh-137" value="" style="endArrow=block;endSize=10;endFill=0;shadow=0;strokeWidth=1;rounded=0;curved=0;edgeStyle=elbowEdgeStyle;elbow=vertical;dashed=1;dashPattern=8 8;exitX=0.421;exitY=0.014;exitDx=0;exitDy=0;exitPerimeter=0;" parent="WIyWlLk6GJQsqaUBKTNV-1" source="lq7LgunMjQ7Xtg1Cg7Fh-139" target="lq7LgunMjQ7Xtg1Cg7Fh-130" edge="1">
          <mxGeometry width="160" relative="1" as="geometry">
            <mxPoint x="-790" y="1840" as="sourcePoint" />
            <mxPoint x="-1030" y="1670" as="targetPoint" />
          </mxGeometry>
        </mxCell>
        <mxCell id="lq7LgunMjQ7Xtg1Cg7Fh-139" value="Extend" style="swimlane;fontStyle=0;align=center;verticalAlign=top;childLayout=stackLayout;horizontal=1;startSize=26;horizontalStack=0;resizeParent=1;resizeLast=0;collapsible=1;marginBottom=0;rounded=0;shadow=0;strokeWidth=1;" parent="WIyWlLk6GJQsqaUBKTNV-1" vertex="1">
          <mxGeometry x="-920" y="1810" width="390" height="140" as="geometry">
            <mxRectangle x="130" y="380" width="160" height="26" as="alternateBounds" />
          </mxGeometry>
        </mxCell>
        <mxCell id="lq7LgunMjQ7Xtg1Cg7Fh-141" value="- dispatch.BaseProcessor" style="text;align=left;verticalAlign=top;spacingLeft=4;spacingRight=4;overflow=hidden;rotatable=0;points=[[0,0.5],[1,0.5]];portConstraint=eastwest;rounded=0;shadow=0;html=0;fillColor=#f8cecc;strokeColor=#b85450;" parent="lq7LgunMjQ7Xtg1Cg7Fh-139" vertex="1">
          <mxGeometry y="26" width="390" height="26" as="geometry" />
        </mxCell>
        <mxCell id="lq7LgunMjQ7Xtg1Cg7Fh-142" value="" style="line;html=1;strokeWidth=1;align=left;verticalAlign=middle;spacingTop=-1;spacingLeft=3;spacingRight=3;rotatable=0;labelPosition=right;points=[];portConstraint=eastwest;" parent="lq7LgunMjQ7Xtg1Cg7Fh-139" vertex="1">
          <mxGeometry y="52" width="390" height="8" as="geometry" />
        </mxCell>
        <mxCell id="lq7LgunMjQ7Xtg1Cg7Fh-143" value="&lt;div style=&quot;line-height: 20px; font-size: 13px;&quot;&gt;&lt;font style=&quot;font-size: 13px; white-space: pre;&quot; face=&quot;Helvetica&quot;&gt;+ &lt;/font&gt; Process(ctx *apiserver.Context, dSet dispatch.DataSet)&lt;/div&gt;" style="text;html=1;align=left;verticalAlign=middle;whiteSpace=wrap;rounded=0;" parent="lq7LgunMjQ7Xtg1Cg7Fh-139" vertex="1">
          <mxGeometry y="60" width="390" height="30" as="geometry" />
        </mxCell>
        <mxCell id="lq7LgunMjQ7Xtg1Cg7Fh-144" value="" style="endArrow=diamondThin;endFill=0;endSize=24;html=1;rounded=0;exitX=0.75;exitY=0;exitDx=0;exitDy=0;" parent="WIyWlLk6GJQsqaUBKTNV-1" source="lq7LgunMjQ7Xtg1Cg7Fh-139" target="lq7LgunMjQ7Xtg1Cg7Fh-107" edge="1">
          <mxGeometry width="160" relative="1" as="geometry">
            <mxPoint x="-522" y="1754" as="sourcePoint" />
            <mxPoint x="-304" y="1784" as="targetPoint" />
          </mxGeometry>
        </mxCell>
        <mxCell id="lq7LgunMjQ7Xtg1Cg7Fh-145" value="&lt;font style=&quot;font-size: 15px;&quot;&gt;1:1&lt;/font&gt;" style="edgeLabel;html=1;align=center;verticalAlign=middle;resizable=0;points=[];" parent="lq7LgunMjQ7Xtg1Cg7Fh-144" vertex="1" connectable="0">
          <mxGeometry x="0.1223" y="-2" relative="1" as="geometry">
            <mxPoint x="1" as="offset" />
          </mxGeometry>
        </mxCell>
        <mxCell id="lq7LgunMjQ7Xtg1Cg7Fh-146" value="" style="endArrow=diamondThin;endFill=0;endSize=24;html=1;rounded=0;entryX=1;entryY=0.5;entryDx=0;entryDy=0;exitX=0.5;exitY=0;exitDx=0;exitDy=0;" parent="WIyWlLk6GJQsqaUBKTNV-1" source="lq7LgunMjQ7Xtg1Cg7Fh-148" target="lq7LgunMjQ7Xtg1Cg7Fh-39" edge="1">
          <mxGeometry width="160" relative="1" as="geometry">
            <mxPoint x="1220" y="1500" as="sourcePoint" />
            <mxPoint x="920" y="1355" as="targetPoint" />
          </mxGeometry>
        </mxCell>
        <mxCell id="lq7LgunMjQ7Xtg1Cg7Fh-147" value="&lt;font style=&quot;font-size: 15px;&quot;&gt;1:1&lt;/font&gt;" style="edgeLabel;html=1;align=center;verticalAlign=middle;resizable=0;points=[];" parent="lq7LgunMjQ7Xtg1Cg7Fh-146" vertex="1" connectable="0">
          <mxGeometry x="0.1223" y="-2" relative="1" as="geometry">
            <mxPoint x="1" as="offset" />
          </mxGeometry>
        </mxCell>
        <mxCell id="lq7LgunMjQ7Xtg1Cg7Fh-148" value="《Function》&#xa;ProcessorFacotry" style="swimlane;fontStyle=2;align=center;verticalAlign=top;childLayout=stackLayout;horizontal=1;startSize=40;horizontalStack=0;resizeParent=1;resizeLast=0;collapsible=1;marginBottom=0;rounded=0;shadow=0;strokeWidth=1;fillColor=#f8cecc;strokeColor=#b85450;" parent="WIyWlLk6GJQsqaUBKTNV-1" vertex="1">
          <mxGeometry x="1218" y="1448" width="392" height="130" as="geometry">
            <mxRectangle x="190" y="630" width="160" height="26" as="alternateBounds" />
          </mxGeometry>
        </mxCell>
        <mxCell id="lq7LgunMjQ7Xtg1Cg7Fh-151" value="&lt;div style=&quot;background-color: rgb(248, 249, 250); font-size: 13px; line-height: 20px; white-space: pre;&quot;&gt; 这个方法会根据processorType获取map中对应的节点处理类&lt;/div&gt;&lt;div style=&quot;background-color: rgb(248, 249, 250); font-size: 13px; line-height: 20px; white-space: pre;&quot;&gt;(Extend/Thread/Word_ratio/Gr等)&lt;/div&gt;&lt;div style=&quot;background-color: rgb(248, 249, 250); font-size: 13px; line-height: 20px; white-space: pre;&quot;&gt;这里的map是一个全局变量map key是processorType value是各个&lt;/div&gt;&lt;div style=&quot;background-color: rgb(248, 249, 250); font-size: 13px; line-height: 20px; white-space: pre;&quot;&gt;节点处理实例&lt;/div&gt;" style="text;html=1;align=left;verticalAlign=middle;whiteSpace=wrap;rounded=0;" parent="lq7LgunMjQ7Xtg1Cg7Fh-148" vertex="1">
          <mxGeometry y="40" width="392" height="90" as="geometry" />
        </mxCell>
        <mxCell id="a9IN5g6XuaWpcjSzZ8GR-0" value="《interface》&#xa;StrategyMgr" style="swimlane;fontStyle=0;align=center;verticalAlign=top;childLayout=stackLayout;horizontal=1;startSize=40;horizontalStack=0;resizeParent=1;resizeLast=0;collapsible=1;marginBottom=0;rounded=0;shadow=0;strokeWidth=1;" parent="WIyWlLk6GJQsqaUBKTNV-1" vertex="1">
          <mxGeometry x="-1360" y="2150" width="480" height="130" as="geometry">
            <mxRectangle x="130" y="380" width="160" height="26" as="alternateBounds" />
          </mxGeometry>
        </mxCell>
        <mxCell id="a9IN5g6XuaWpcjSzZ8GR-4" value="&lt;div style=&quot;line-height: 20px; font-size: 13px;&quot;&gt;&lt;font style=&quot;font-size: 13px; white-space: pre;&quot; face=&quot;Helvetica&quot;&gt;+ &lt;/font&gt;Strategies() []Strategy&lt;/div&gt;" style="text;html=1;align=left;verticalAlign=middle;whiteSpace=wrap;rounded=0;" parent="a9IN5g6XuaWpcjSzZ8GR-0" vertex="1">
          <mxGeometry y="40" width="480" height="30" as="geometry" />
        </mxCell>
        <mxCell id="a9IN5g6XuaWpcjSzZ8GR-5" value="&lt;div style=&quot;line-height: 20px; font-size: 13px;&quot;&gt;&lt;div style=&quot;font-size: 11.3pt;&quot;&gt;&lt;pre style=&quot;font-size: 13px;&quot;&gt;&lt;font face=&quot;Helvetica&quot; style=&quot;font-size: 13px;&quot;&gt;+ Run(*context.Context, dispatch.DataSet) (map[string]*types.ReplyScore, error)&lt;/font&gt;&lt;/pre&gt;&lt;/div&gt;&lt;/div&gt;" style="text;html=1;align=left;verticalAlign=middle;whiteSpace=wrap;rounded=0;" parent="a9IN5g6XuaWpcjSzZ8GR-0" vertex="1">
          <mxGeometry y="70" width="480" height="30" as="geometry" />
        </mxCell>
        <mxCell id="a9IN5g6XuaWpcjSzZ8GR-6" value="" style="endArrow=block;endSize=10;endFill=0;shadow=0;strokeWidth=1;rounded=0;curved=0;edgeStyle=elbowEdgeStyle;elbow=vertical;dashed=1;dashPattern=8 8;" parent="WIyWlLk6GJQsqaUBKTNV-1" source="a9IN5g6XuaWpcjSzZ8GR-7" target="a9IN5g6XuaWpcjSzZ8GR-0" edge="1">
          <mxGeometry width="160" relative="1" as="geometry">
            <mxPoint x="-1120" y="2450" as="sourcePoint" />
            <mxPoint x="-1149" y="2340" as="targetPoint" />
          </mxGeometry>
        </mxCell>
        <mxCell id="a9IN5g6XuaWpcjSzZ8GR-7" value="strategyMgr" style="swimlane;fontStyle=0;align=center;verticalAlign=top;childLayout=stackLayout;horizontal=1;startSize=26;horizontalStack=0;resizeParent=1;resizeLast=0;collapsible=1;marginBottom=0;rounded=0;shadow=0;strokeWidth=1;" parent="WIyWlLk6GJQsqaUBKTNV-1" vertex="1">
          <mxGeometry x="-1360" y="2420" width="480" height="190" as="geometry">
            <mxRectangle x="130" y="380" width="160" height="26" as="alternateBounds" />
          </mxGeometry>
        </mxCell>
        <mxCell id="a9IN5g6XuaWpcjSzZ8GR-8" value="+ Name        string" style="text;align=left;verticalAlign=top;spacingLeft=4;spacingRight=4;overflow=hidden;rotatable=0;points=[[0,0.5],[1,0.5]];portConstraint=eastwest;" parent="a9IN5g6XuaWpcjSzZ8GR-7" vertex="1">
          <mxGeometry y="26" width="480" height="26" as="geometry" />
        </mxCell>
        <mxCell id="a9IN5g6XuaWpcjSzZ8GR-9" value="+ StrategyIds []string" style="text;align=left;verticalAlign=top;spacingLeft=4;spacingRight=4;overflow=hidden;rotatable=0;points=[[0,0.5],[1,0.5]];portConstraint=eastwest;rounded=0;shadow=0;html=0;" parent="a9IN5g6XuaWpcjSzZ8GR-7" vertex="1">
          <mxGeometry y="52" width="480" height="26" as="geometry" />
        </mxCell>
        <mxCell id="a9IN5g6XuaWpcjSzZ8GR-15" value="- strategies  []Strategy" style="text;align=left;verticalAlign=top;spacingLeft=4;spacingRight=4;overflow=hidden;rotatable=0;points=[[0,0.5],[1,0.5]];portConstraint=eastwest;rounded=0;shadow=0;html=0;fillColor=#dae8fc;strokeColor=#6c8ebf;" parent="a9IN5g6XuaWpcjSzZ8GR-7" vertex="1">
          <mxGeometry y="78" width="480" height="26" as="geometry" />
        </mxCell>
        <mxCell id="a9IN5g6XuaWpcjSzZ8GR-10" value="" style="line;html=1;strokeWidth=1;align=left;verticalAlign=middle;spacingTop=-1;spacingLeft=3;spacingRight=3;rotatable=0;labelPosition=right;points=[];portConstraint=eastwest;" parent="a9IN5g6XuaWpcjSzZ8GR-7" vertex="1">
          <mxGeometry y="104" width="480" height="8" as="geometry" />
        </mxCell>
        <mxCell id="a9IN5g6XuaWpcjSzZ8GR-11" value="&lt;div style=&quot;line-height: 20px; font-size: 13px;&quot;&gt;&lt;font face=&quot;Helvetica&quot;&gt;&lt;font style=&quot;font-size: 13px;&quot;&gt;&lt;font style=&quot;font-size: 13px; white-space: pre;&quot;&gt;+ &lt;/font&gt;&lt;/font&gt;Strategies() []Strategy&lt;/font&gt;&lt;/div&gt;" style="text;html=1;align=left;verticalAlign=middle;whiteSpace=wrap;rounded=0;" parent="a9IN5g6XuaWpcjSzZ8GR-7" vertex="1">
          <mxGeometry y="112" width="480" height="30" as="geometry" />
        </mxCell>
        <mxCell id="a9IN5g6XuaWpcjSzZ8GR-16" value="&lt;div style=&quot;line-height: 20px; font-size: 13px;&quot;&gt;&lt;div style=&quot;font-size: 11.3pt;&quot;&gt;&lt;pre style=&quot;font-size: 13px;&quot;&gt;&lt;font face=&quot;Helvetica&quot; style=&quot;font-size: 13px;&quot;&gt;+ Run(*context.Context, dispatch.DataSet) (map[string]*types.ReplyScore, error)&lt;/font&gt;&lt;/pre&gt;&lt;/div&gt;&lt;/div&gt;" style="text;html=1;align=left;verticalAlign=middle;whiteSpace=wrap;rounded=0;" parent="a9IN5g6XuaWpcjSzZ8GR-7" vertex="1">
          <mxGeometry y="142" width="480" height="30" as="geometry" />
        </mxCell>
        <mxCell id="a9IN5g6XuaWpcjSzZ8GR-17" value="" style="endArrow=diamondThin;endFill=0;endSize=24;html=1;rounded=0;entryX=1;entryY=0.5;entryDx=0;entryDy=0;" parent="WIyWlLk6GJQsqaUBKTNV-1" source="a9IN5g6XuaWpcjSzZ8GR-22" target="a9IN5g6XuaWpcjSzZ8GR-7" edge="1">
          <mxGeometry width="160" relative="1" as="geometry">
            <mxPoint x="-525.744680851064" y="2330" as="sourcePoint" />
            <mxPoint x="-492" y="2290" as="targetPoint" />
          </mxGeometry>
        </mxCell>
        <mxCell id="a9IN5g6XuaWpcjSzZ8GR-18" value="&lt;font style=&quot;font-size: 15px;&quot;&gt;1:n&lt;/font&gt;" style="edgeLabel;html=1;align=center;verticalAlign=middle;resizable=0;points=[];" parent="a9IN5g6XuaWpcjSzZ8GR-17" vertex="1" connectable="0">
          <mxGeometry x="0.1223" y="-2" relative="1" as="geometry">
            <mxPoint x="1" as="offset" />
          </mxGeometry>
        </mxCell>
        <mxCell id="a9IN5g6XuaWpcjSzZ8GR-22" value="《interface》&#xa;Strategy" style="swimlane;fontStyle=0;align=center;verticalAlign=top;childLayout=stackLayout;horizontal=1;startSize=40;horizontalStack=0;resizeParent=1;resizeLast=0;collapsible=1;marginBottom=0;rounded=0;shadow=0;strokeWidth=1;fillColor=#dae8fc;strokeColor=#6c8ebf;" parent="WIyWlLk6GJQsqaUBKTNV-1" vertex="1">
          <mxGeometry x="-655" y="2200" width="480" height="110" as="geometry">
            <mxRectangle x="130" y="380" width="160" height="26" as="alternateBounds" />
          </mxGeometry>
        </mxCell>
        <mxCell id="a9IN5g6XuaWpcjSzZ8GR-23" value="&lt;div style=&quot;line-height: 20px; font-size: 13px;&quot;&gt;&lt;font style=&quot;font-size: 13px; white-space: pre;&quot; face=&quot;Helvetica&quot;&gt;+ ID&lt;/font&gt;() string&lt;/div&gt;" style="text;html=1;align=left;verticalAlign=middle;whiteSpace=wrap;rounded=0;" parent="a9IN5g6XuaWpcjSzZ8GR-22" vertex="1">
          <mxGeometry y="40" width="480" height="30" as="geometry" />
        </mxCell>
        <mxCell id="a9IN5g6XuaWpcjSzZ8GR-24" value="&lt;div style=&quot;line-height: 20px; font-size: 13px;&quot;&gt;&lt;div style=&quot;font-size: 11.3pt;&quot;&gt;&lt;pre style=&quot;font-size: 13px;&quot;&gt;&lt;font face=&quot;Helvetica&quot; style=&quot;font-size: 13px;&quot;&gt;+ Run(*context.Context, dispatch.DataSet) (*types.ReplyScore, error)&lt;/font&gt;&lt;/pre&gt;&lt;/div&gt;&lt;/div&gt;" style="text;html=1;align=left;verticalAlign=middle;whiteSpace=wrap;rounded=0;" parent="a9IN5g6XuaWpcjSzZ8GR-22" vertex="1">
          <mxGeometry y="70" width="480" height="30" as="geometry" />
        </mxCell>
        <mxCell id="a9IN5g6XuaWpcjSzZ8GR-25" value="" style="endArrow=block;endSize=10;endFill=0;shadow=0;strokeWidth=1;rounded=0;curved=0;edgeStyle=elbowEdgeStyle;elbow=vertical;dashed=1;dashPattern=8 8;" parent="WIyWlLk6GJQsqaUBKTNV-1" source="a9IN5g6XuaWpcjSzZ8GR-26" target="a9IN5g6XuaWpcjSzZ8GR-22" edge="1">
          <mxGeometry width="160" relative="1" as="geometry">
            <mxPoint x="-415" y="2430" as="sourcePoint" />
            <mxPoint x="-430" y="2318" as="targetPoint" />
          </mxGeometry>
        </mxCell>
        <mxCell id="a9IN5g6XuaWpcjSzZ8GR-26" value="Strategy" style="swimlane;fontStyle=0;align=center;verticalAlign=top;childLayout=stackLayout;horizontal=1;startSize=26;horizontalStack=0;resizeParent=1;resizeLast=0;collapsible=1;marginBottom=0;rounded=0;shadow=0;strokeWidth=1;fillColor=#dae8fc;strokeColor=#6c8ebf;" parent="WIyWlLk6GJQsqaUBKTNV-1" vertex="1">
          <mxGeometry x="-655" y="2440" width="480" height="190" as="geometry">
            <mxRectangle x="130" y="380" width="160" height="26" as="alternateBounds" />
          </mxGeometry>
        </mxCell>
        <mxCell id="a9IN5g6XuaWpcjSzZ8GR-27" value="- id string" style="text;align=left;verticalAlign=top;spacingLeft=4;spacingRight=4;overflow=hidden;rotatable=0;points=[[0,0.5],[1,0.5]];portConstraint=eastwest;" parent="a9IN5g6XuaWpcjSzZ8GR-26" vertex="1">
          <mxGeometry y="26" width="480" height="26" as="geometry" />
        </mxCell>
        <mxCell id="a9IN5g6XuaWpcjSzZ8GR-28" value="- factors []factor.Factor" style="text;align=left;verticalAlign=top;spacingLeft=4;spacingRight=4;overflow=hidden;rotatable=0;points=[[0,0.5],[1,0.5]];portConstraint=eastwest;rounded=0;shadow=0;html=0;fillColor=#d5e8d4;strokeColor=#82b366;" parent="a9IN5g6XuaWpcjSzZ8GR-26" vertex="1">
          <mxGeometry y="52" width="480" height="26" as="geometry" />
        </mxCell>
        <mxCell id="a9IN5g6XuaWpcjSzZ8GR-29" value="- rule    Rule" style="text;align=left;verticalAlign=top;spacingLeft=4;spacingRight=4;overflow=hidden;rotatable=0;points=[[0,0.5],[1,0.5]];portConstraint=eastwest;rounded=0;shadow=0;html=0;fillColor=#ffe6cc;strokeColor=#d79b00;" parent="a9IN5g6XuaWpcjSzZ8GR-26" vertex="1">
          <mxGeometry y="78" width="480" height="26" as="geometry" />
        </mxCell>
        <mxCell id="a9IN5g6XuaWpcjSzZ8GR-30" value="" style="line;html=1;strokeWidth=1;align=left;verticalAlign=middle;spacingTop=-1;spacingLeft=3;spacingRight=3;rotatable=0;labelPosition=right;points=[];portConstraint=eastwest;" parent="a9IN5g6XuaWpcjSzZ8GR-26" vertex="1">
          <mxGeometry y="104" width="480" height="8" as="geometry" />
        </mxCell>
        <mxCell id="a9IN5g6XuaWpcjSzZ8GR-33" value="&lt;div style=&quot;line-height: 20px; font-size: 13px;&quot;&gt;&lt;font style=&quot;font-size: 13px; white-space: pre;&quot; face=&quot;Helvetica&quot;&gt;+ ID&lt;/font&gt;() string&lt;/div&gt;" style="text;html=1;align=left;verticalAlign=middle;whiteSpace=wrap;rounded=0;" parent="a9IN5g6XuaWpcjSzZ8GR-26" vertex="1">
          <mxGeometry y="112" width="480" height="30" as="geometry" />
        </mxCell>
        <mxCell id="a9IN5g6XuaWpcjSzZ8GR-34" value="&lt;div style=&quot;line-height: 20px; font-size: 13px;&quot;&gt;&lt;div style=&quot;font-size: 11.3pt;&quot;&gt;&lt;pre style=&quot;font-size: 13px;&quot;&gt;&lt;font face=&quot;Helvetica&quot; style=&quot;font-size: 13px;&quot;&gt;+ Run(*context.Context, dispatch.DataSet) (*types.ReplyScore, error)&lt;/font&gt;&lt;/pre&gt;&lt;/div&gt;&lt;/div&gt;" style="text;html=1;align=left;verticalAlign=middle;whiteSpace=wrap;rounded=0;" parent="a9IN5g6XuaWpcjSzZ8GR-26" vertex="1">
          <mxGeometry y="142" width="480" height="30" as="geometry" />
        </mxCell>
        <mxCell id="a9IN5g6XuaWpcjSzZ8GR-35" value="" style="endArrow=diamondThin;endFill=0;endSize=24;html=1;rounded=0;entryX=1;entryY=0.5;entryDx=0;entryDy=0;" parent="WIyWlLk6GJQsqaUBKTNV-1" source="a9IN5g6XuaWpcjSzZ8GR-37" target="a9IN5g6XuaWpcjSzZ8GR-28" edge="1">
          <mxGeometry width="160" relative="1" as="geometry">
            <mxPoint x="50" y="2300" as="sourcePoint" />
            <mxPoint x="-100" y="2485" as="targetPoint" />
          </mxGeometry>
        </mxCell>
        <mxCell id="a9IN5g6XuaWpcjSzZ8GR-36" value="&lt;font style=&quot;font-size: 15px;&quot;&gt;1:n&lt;/font&gt;" style="edgeLabel;html=1;align=center;verticalAlign=middle;resizable=0;points=[];" parent="a9IN5g6XuaWpcjSzZ8GR-35" vertex="1" connectable="0">
          <mxGeometry x="0.1223" y="-2" relative="1" as="geometry">
            <mxPoint x="1" as="offset" />
          </mxGeometry>
        </mxCell>
        <mxCell id="a9IN5g6XuaWpcjSzZ8GR-37" value="《interface》&#xa;Factor" style="swimlane;fontStyle=0;align=center;verticalAlign=top;childLayout=stackLayout;horizontal=1;startSize=40;horizontalStack=0;resizeParent=1;resizeLast=0;collapsible=1;marginBottom=0;rounded=0;shadow=0;strokeWidth=1;fillColor=#d5e8d4;strokeColor=#82b366;" parent="WIyWlLk6GJQsqaUBKTNV-1" vertex="1">
          <mxGeometry x="10" y="2190" width="480" height="110" as="geometry">
            <mxRectangle x="130" y="380" width="160" height="26" as="alternateBounds" />
          </mxGeometry>
        </mxCell>
        <mxCell id="a9IN5g6XuaWpcjSzZ8GR-38" value="&lt;div style=&quot;line-height: 20px; font-size: 13px;&quot;&gt;&lt;font style=&quot;font-size: 13px;&quot; face=&quot;Helvetica&quot;&gt;&lt;font style=&quot;font-size: 13px; white-space: pre;&quot;&gt;+ &lt;/font&gt;Name() string&lt;/font&gt;&lt;/div&gt;" style="text;html=1;align=left;verticalAlign=middle;whiteSpace=wrap;rounded=0;" parent="a9IN5g6XuaWpcjSzZ8GR-37" vertex="1">
          <mxGeometry y="40" width="480" height="30" as="geometry" />
        </mxCell>
        <mxCell id="a9IN5g6XuaWpcjSzZ8GR-39" value="&lt;div style=&quot;line-height: 20px; font-size: 13px;&quot;&gt;&lt;div style=&quot;font-size: 11.3pt;&quot;&gt;&lt;pre style=&quot;font-size: 13px;&quot;&gt;&lt;font face=&quot;Helvetica&quot;&gt;&lt;font style=&quot;font-size: 13px;&quot;&gt;+ Run(*context.Context, dispatch.DataSet, &lt;/font&gt;*types.ReplyScore) (float64, error)&lt;/font&gt;&lt;/pre&gt;&lt;/div&gt;&lt;/div&gt;" style="text;html=1;align=left;verticalAlign=middle;whiteSpace=wrap;rounded=0;" parent="a9IN5g6XuaWpcjSzZ8GR-37" vertex="1">
          <mxGeometry y="70" width="480" height="30" as="geometry" />
        </mxCell>
        <mxCell id="a9IN5g6XuaWpcjSzZ8GR-40" value="" style="endArrow=block;endSize=10;endFill=0;shadow=0;strokeWidth=1;rounded=0;curved=0;edgeStyle=elbowEdgeStyle;elbow=vertical;dashed=1;dashPattern=8 8;" parent="WIyWlLk6GJQsqaUBKTNV-1" source="a9IN5g6XuaWpcjSzZ8GR-41" target="a9IN5g6XuaWpcjSzZ8GR-37" edge="1">
          <mxGeometry width="160" relative="1" as="geometry">
            <mxPoint x="250" y="2430" as="sourcePoint" />
            <mxPoint x="230" y="2360" as="targetPoint" />
          </mxGeometry>
        </mxCell>
        <mxCell id="a9IN5g6XuaWpcjSzZ8GR-41" value="commentType(Ex...)" style="swimlane;fontStyle=0;align=center;verticalAlign=top;childLayout=stackLayout;horizontal=1;startSize=26;horizontalStack=0;resizeParent=1;resizeLast=0;collapsible=1;marginBottom=0;rounded=0;shadow=0;strokeWidth=1;fillColor=#d5e8d4;strokeColor=#82b366;" parent="WIyWlLk6GJQsqaUBKTNV-1" vertex="1">
          <mxGeometry x="360" y="2480" width="480" height="198" as="geometry">
            <mxRectangle x="130" y="380" width="160" height="26" as="alternateBounds" />
          </mxGeometry>
        </mxCell>
        <mxCell id="a9IN5g6XuaWpcjSzZ8GR-42" value="- *base" style="text;align=left;verticalAlign=top;spacingLeft=4;spacingRight=4;overflow=hidden;rotatable=0;points=[[0,0.5],[1,0.5]];portConstraint=eastwest;fillColor=#fff2cc;strokeColor=#d6b656;" parent="a9IN5g6XuaWpcjSzZ8GR-41" vertex="1">
          <mxGeometry y="26" width="480" height="26" as="geometry" />
        </mxCell>
        <mxCell id="a9IN5g6XuaWpcjSzZ8GR-43" value="- videoTypeRate float64" style="text;align=left;verticalAlign=top;spacingLeft=4;spacingRight=4;overflow=hidden;rotatable=0;points=[[0,0.5],[1,0.5]];portConstraint=eastwest;rounded=0;shadow=0;html=0;" parent="a9IN5g6XuaWpcjSzZ8GR-41" vertex="1">
          <mxGeometry y="52" width="480" height="26" as="geometry" />
        </mxCell>
        <mxCell id="a9IN5g6XuaWpcjSzZ8GR-44" value="- pkTypeRate    float64" style="text;align=left;verticalAlign=top;spacingLeft=4;spacingRight=4;overflow=hidden;rotatable=0;points=[[0,0.5],[1,0.5]];portConstraint=eastwest;rounded=0;shadow=0;html=0;" parent="a9IN5g6XuaWpcjSzZ8GR-41" vertex="1">
          <mxGeometry y="78" width="480" height="26" as="geometry" />
        </mxCell>
        <mxCell id="a9IN5g6XuaWpcjSzZ8GR-49" value="- picTypeRate   float64" style="text;align=left;verticalAlign=top;spacingLeft=4;spacingRight=4;overflow=hidden;rotatable=0;points=[[0,0.5],[1,0.5]];portConstraint=eastwest;rounded=0;shadow=0;html=0;" parent="a9IN5g6XuaWpcjSzZ8GR-41" vertex="1">
          <mxGeometry y="104" width="480" height="26" as="geometry" />
        </mxCell>
        <mxCell id="a9IN5g6XuaWpcjSzZ8GR-45" value="" style="line;html=1;strokeWidth=1;align=left;verticalAlign=middle;spacingTop=-1;spacingLeft=3;spacingRight=3;rotatable=0;labelPosition=right;points=[];portConstraint=eastwest;" parent="a9IN5g6XuaWpcjSzZ8GR-41" vertex="1">
          <mxGeometry y="130" width="480" height="8" as="geometry" />
        </mxCell>
        <mxCell id="a9IN5g6XuaWpcjSzZ8GR-50" value="&lt;div style=&quot;line-height: 20px; font-size: 13px;&quot;&gt;&lt;div style=&quot;font-size: 11.3pt;&quot;&gt;&lt;pre style=&quot;font-size: 13px;&quot;&gt;&lt;font face=&quot;Helvetica&quot;&gt;&lt;font style=&quot;font-size: 13px;&quot;&gt;+ Run(*context.Context, dispatch.DataSet, &lt;/font&gt;*types.ReplyScore) (float64, error)&lt;/font&gt;&lt;/pre&gt;&lt;/div&gt;&lt;/div&gt;" style="text;html=1;align=left;verticalAlign=middle;whiteSpace=wrap;rounded=0;" parent="a9IN5g6XuaWpcjSzZ8GR-41" vertex="1">
          <mxGeometry y="138" width="480" height="30" as="geometry" />
        </mxCell>
        <mxCell id="a9IN5g6XuaWpcjSzZ8GR-52" value="base" style="swimlane;fontStyle=0;align=center;verticalAlign=top;childLayout=stackLayout;horizontal=1;startSize=26;horizontalStack=0;resizeParent=1;resizeLast=0;collapsible=1;marginBottom=0;rounded=0;shadow=0;strokeWidth=1;fillColor=#fff2cc;strokeColor=#d6b656;" parent="WIyWlLk6GJQsqaUBKTNV-1" vertex="1">
          <mxGeometry x="1110" y="2470" width="480" height="198" as="geometry">
            <mxRectangle x="130" y="380" width="160" height="26" as="alternateBounds" />
          </mxGeometry>
        </mxCell>
        <mxCell id="a9IN5g6XuaWpcjSzZ8GR-54" value="- videoTypeRate float64" style="text;align=left;verticalAlign=top;spacingLeft=4;spacingRight=4;overflow=hidden;rotatable=0;points=[[0,0.5],[1,0.5]];portConstraint=eastwest;rounded=0;shadow=0;html=0;" parent="a9IN5g6XuaWpcjSzZ8GR-52" vertex="1">
          <mxGeometry y="26" width="480" height="26" as="geometry" />
        </mxCell>
        <mxCell id="a9IN5g6XuaWpcjSzZ8GR-55" value="- pkTypeRate    float64" style="text;align=left;verticalAlign=top;spacingLeft=4;spacingRight=4;overflow=hidden;rotatable=0;points=[[0,0.5],[1,0.5]];portConstraint=eastwest;rounded=0;shadow=0;html=0;" parent="a9IN5g6XuaWpcjSzZ8GR-52" vertex="1">
          <mxGeometry y="52" width="480" height="26" as="geometry" />
        </mxCell>
        <mxCell id="a9IN5g6XuaWpcjSzZ8GR-56" value="- picTypeRate   float64" style="text;align=left;verticalAlign=top;spacingLeft=4;spacingRight=4;overflow=hidden;rotatable=0;points=[[0,0.5],[1,0.5]];portConstraint=eastwest;rounded=0;shadow=0;html=0;" parent="a9IN5g6XuaWpcjSzZ8GR-52" vertex="1">
          <mxGeometry y="78" width="480" height="26" as="geometry" />
        </mxCell>
        <mxCell id="a9IN5g6XuaWpcjSzZ8GR-57" value="" style="line;html=1;strokeWidth=1;align=left;verticalAlign=middle;spacingTop=-1;spacingLeft=3;spacingRight=3;rotatable=0;labelPosition=right;points=[];portConstraint=eastwest;" parent="a9IN5g6XuaWpcjSzZ8GR-52" vertex="1">
          <mxGeometry y="104" width="480" height="8" as="geometry" />
        </mxCell>
        <mxCell id="a9IN5g6XuaWpcjSzZ8GR-58" value="&lt;div style=&quot;line-height: 20px; font-size: 13px;&quot;&gt;&lt;font style=&quot;font-size: 13px;&quot; face=&quot;Helvetica&quot;&gt;&lt;font style=&quot;font-size: 13px; white-space: pre;&quot;&gt;+ &lt;/font&gt;Name() string&lt;/font&gt;&lt;/div&gt;" style="text;html=1;align=left;verticalAlign=middle;whiteSpace=wrap;rounded=0;" parent="a9IN5g6XuaWpcjSzZ8GR-52" vertex="1">
          <mxGeometry y="112" width="480" height="30" as="geometry" />
        </mxCell>
        <mxCell id="a9IN5g6XuaWpcjSzZ8GR-60" value="commentType(Ex...)" style="swimlane;fontStyle=0;align=center;verticalAlign=top;childLayout=stackLayout;horizontal=1;startSize=26;horizontalStack=0;resizeParent=1;resizeLast=0;collapsible=1;marginBottom=0;rounded=0;shadow=0;strokeWidth=1;fillColor=#d5e8d4;strokeColor=#82b366;" parent="WIyWlLk6GJQsqaUBKTNV-1" vertex="1">
          <mxGeometry x="740" y="2130" width="480" height="150" as="geometry">
            <mxRectangle x="130" y="380" width="160" height="26" as="alternateBounds" />
          </mxGeometry>
        </mxCell>
        <mxCell id="a9IN5g6XuaWpcjSzZ8GR-61" value="- *base" style="text;align=left;verticalAlign=top;spacingLeft=4;spacingRight=4;overflow=hidden;rotatable=0;points=[[0,0.5],[1,0.5]];portConstraint=eastwest;fillColor=#fff2cc;strokeColor=#d6b656;" parent="a9IN5g6XuaWpcjSzZ8GR-60" vertex="1">
          <mxGeometry y="26" width="480" height="26" as="geometry" />
        </mxCell>
        <mxCell id="a9IN5g6XuaWpcjSzZ8GR-62" value="- positiveRate float64" style="text;align=left;verticalAlign=top;spacingLeft=4;spacingRight=4;overflow=hidden;rotatable=0;points=[[0,0.5],[1,0.5]];portConstraint=eastwest;rounded=0;shadow=0;html=0;" parent="a9IN5g6XuaWpcjSzZ8GR-60" vertex="1">
          <mxGeometry y="52" width="480" height="26" as="geometry" />
        </mxCell>
        <mxCell id="a9IN5g6XuaWpcjSzZ8GR-65" value="" style="line;html=1;strokeWidth=1;align=left;verticalAlign=middle;spacingTop=-1;spacingLeft=3;spacingRight=3;rotatable=0;labelPosition=right;points=[];portConstraint=eastwest;" parent="a9IN5g6XuaWpcjSzZ8GR-60" vertex="1">
          <mxGeometry y="78" width="480" height="8" as="geometry" />
        </mxCell>
        <mxCell id="a9IN5g6XuaWpcjSzZ8GR-67" value="&lt;div style=&quot;line-height: 20px; font-size: 13px;&quot;&gt;&lt;div style=&quot;font-size: 11.3pt;&quot;&gt;&lt;pre style=&quot;font-size: 13px;&quot;&gt;&lt;font face=&quot;Helvetica&quot;&gt;&lt;font style=&quot;font-size: 13px;&quot;&gt;+ Run(*context.Context, dispatch.DataSet, &lt;/font&gt;*types.ReplyScore) (float64, error)&lt;/font&gt;&lt;/pre&gt;&lt;/div&gt;&lt;/div&gt;" style="text;html=1;align=left;verticalAlign=middle;whiteSpace=wrap;rounded=0;" parent="a9IN5g6XuaWpcjSzZ8GR-60" vertex="1">
          <mxGeometry y="86" width="480" height="30" as="geometry" />
        </mxCell>
        <mxCell id="a9IN5g6XuaWpcjSzZ8GR-68" value="" style="endArrow=block;endSize=10;endFill=0;shadow=0;strokeWidth=1;rounded=0;curved=0;edgeStyle=elbowEdgeStyle;elbow=vertical;dashed=1;dashPattern=8 8;" parent="WIyWlLk6GJQsqaUBKTNV-1" source="a9IN5g6XuaWpcjSzZ8GR-60" target="a9IN5g6XuaWpcjSzZ8GR-37" edge="1">
          <mxGeometry width="160" relative="1" as="geometry">
            <mxPoint x="550" y="2050" as="sourcePoint" />
            <mxPoint x="130" y="2130.08" as="targetPoint" />
          </mxGeometry>
        </mxCell>
        <mxCell id="a9IN5g6XuaWpcjSzZ8GR-71" value="" style="endArrow=diamondThin;endFill=1;endSize=24;html=1;rounded=0;" parent="WIyWlLk6GJQsqaUBKTNV-1" source="a9IN5g6XuaWpcjSzZ8GR-52" target="a9IN5g6XuaWpcjSzZ8GR-60" edge="1">
          <mxGeometry width="160" relative="1" as="geometry">
            <mxPoint x="950" y="2400" as="sourcePoint" />
            <mxPoint x="1110" y="2400" as="targetPoint" />
          </mxGeometry>
        </mxCell>
        <mxCell id="a9IN5g6XuaWpcjSzZ8GR-73" value="&lt;font style=&quot;font-size: 15px;&quot;&gt;1:1&lt;/font&gt;" style="edgeLabel;html=1;align=center;verticalAlign=middle;resizable=0;points=[];" parent="a9IN5g6XuaWpcjSzZ8GR-71" vertex="1" connectable="0">
          <mxGeometry x="0.041" y="4" relative="1" as="geometry">
            <mxPoint as="offset" />
          </mxGeometry>
        </mxCell>
        <mxCell id="a9IN5g6XuaWpcjSzZ8GR-74" value="" style="endArrow=diamondThin;endFill=1;endSize=24;html=1;rounded=0;" parent="WIyWlLk6GJQsqaUBKTNV-1" source="a9IN5g6XuaWpcjSzZ8GR-52" target="a9IN5g6XuaWpcjSzZ8GR-41" edge="1">
          <mxGeometry width="160" relative="1" as="geometry">
            <mxPoint x="1259" y="2480" as="sourcePoint" />
            <mxPoint x="1066" y="2290" as="targetPoint" />
          </mxGeometry>
        </mxCell>
        <mxCell id="a9IN5g6XuaWpcjSzZ8GR-75" value="&lt;font style=&quot;font-size: 15px;&quot;&gt;1:1&lt;/font&gt;" style="edgeLabel;html=1;align=center;verticalAlign=middle;resizable=0;points=[];" parent="a9IN5g6XuaWpcjSzZ8GR-74" vertex="1" connectable="0">
          <mxGeometry x="0.041" y="4" relative="1" as="geometry">
            <mxPoint as="offset" />
          </mxGeometry>
        </mxCell>
        <mxCell id="a9IN5g6XuaWpcjSzZ8GR-76" value="《interface》&#xa;Rule" style="swimlane;fontStyle=0;align=center;verticalAlign=top;childLayout=stackLayout;horizontal=1;startSize=40;horizontalStack=0;resizeParent=1;resizeLast=0;collapsible=1;marginBottom=0;rounded=0;shadow=0;strokeWidth=1;fillColor=#ffe6cc;strokeColor=#d79b00;" parent="WIyWlLk6GJQsqaUBKTNV-1" vertex="1">
          <mxGeometry x="-130" y="2640" width="480" height="80" as="geometry">
            <mxRectangle x="130" y="380" width="160" height="26" as="alternateBounds" />
          </mxGeometry>
        </mxCell>
        <mxCell id="a9IN5g6XuaWpcjSzZ8GR-81" value="&lt;div style=&quot;line-height: 20px; font-size: 13px;&quot;&gt;&lt;div style=&quot;font-size: 11.3pt;&quot;&gt;&lt;pre style=&quot;font-size: 13px;&quot;&gt;&lt;font face=&quot;Helvetica&quot;&gt;&lt;font style=&quot;font-size: 13px;&quot;&gt;+ Sorce(*context.Context, param map[string]interface{}&lt;/font&gt;) (float64, error)&lt;/font&gt;&lt;/pre&gt;&lt;/div&gt;&lt;/div&gt;" style="text;html=1;align=left;verticalAlign=middle;whiteSpace=wrap;rounded=0;" parent="a9IN5g6XuaWpcjSzZ8GR-76" vertex="1">
          <mxGeometry y="40" width="480" height="30" as="geometry" />
        </mxCell>
        <mxCell id="a9IN5g6XuaWpcjSzZ8GR-79" value="" style="endArrow=diamondThin;endFill=0;endSize=24;html=1;rounded=0;entryX=1;entryY=0.5;entryDx=0;entryDy=0;" parent="WIyWlLk6GJQsqaUBKTNV-1" source="a9IN5g6XuaWpcjSzZ8GR-76" target="a9IN5g6XuaWpcjSzZ8GR-29" edge="1">
          <mxGeometry width="160" relative="1" as="geometry">
            <mxPoint x="170" y="2310" as="sourcePoint" />
            <mxPoint x="-165" y="2515" as="targetPoint" />
          </mxGeometry>
        </mxCell>
        <mxCell id="a9IN5g6XuaWpcjSzZ8GR-80" value="&lt;font style=&quot;font-size: 15px;&quot;&gt;1:n&lt;/font&gt;" style="edgeLabel;html=1;align=center;verticalAlign=middle;resizable=0;points=[];" parent="a9IN5g6XuaWpcjSzZ8GR-79" vertex="1" connectable="0">
          <mxGeometry x="0.1223" y="-2" relative="1" as="geometry">
            <mxPoint x="1" as="offset" />
          </mxGeometry>
        </mxCell>
        <mxCell id="a9IN5g6XuaWpcjSzZ8GR-82" value="" style="endArrow=block;endSize=10;endFill=0;shadow=0;strokeWidth=1;rounded=0;curved=0;edgeStyle=elbowEdgeStyle;elbow=vertical;dashed=1;dashPattern=8 8;exitX=0.5;exitY=0;exitDx=0;exitDy=0;" parent="WIyWlLk6GJQsqaUBKTNV-1" source="a9IN5g6XuaWpcjSzZ8GR-83" target="a9IN5g6XuaWpcjSzZ8GR-76" edge="1">
          <mxGeometry width="160" relative="1" as="geometry">
            <mxPoint x="110" y="2840" as="sourcePoint" />
            <mxPoint x="260" y="2310" as="targetPoint" />
          </mxGeometry>
        </mxCell>
        <mxCell id="a9IN5g6XuaWpcjSzZ8GR-83" value="formula" style="swimlane;fontStyle=0;align=center;verticalAlign=top;childLayout=stackLayout;horizontal=1;startSize=26;horizontalStack=0;resizeParent=1;resizeLast=0;collapsible=1;marginBottom=0;rounded=0;shadow=0;strokeWidth=1;fillColor=#ffe6cc;strokeColor=#d79b00;" parent="WIyWlLk6GJQsqaUBKTNV-1" vertex="1">
          <mxGeometry x="-130" y="2810" width="480" height="170" as="geometry">
            <mxRectangle x="130" y="380" width="160" height="26" as="alternateBounds" />
          </mxGeometry>
        </mxCell>
        <mxCell id="a9IN5g6XuaWpcjSzZ8GR-84" value="- formula    string" style="text;align=left;verticalAlign=top;spacingLeft=4;spacingRight=4;overflow=hidden;rotatable=0;points=[[0,0.5],[1,0.5]];portConstraint=eastwest;" parent="a9IN5g6XuaWpcjSzZ8GR-83" vertex="1">
          <mxGeometry y="26" width="480" height="26" as="geometry" />
        </mxCell>
        <mxCell id="a9IN5g6XuaWpcjSzZ8GR-85" value="- expression *govaluate.EvaluableExpression" style="text;align=left;verticalAlign=top;spacingLeft=4;spacingRight=4;overflow=hidden;rotatable=0;points=[[0,0.5],[1,0.5]];portConstraint=eastwest;rounded=0;shadow=0;html=0;" parent="a9IN5g6XuaWpcjSzZ8GR-83" vertex="1">
          <mxGeometry y="52" width="480" height="26" as="geometry" />
        </mxCell>
        <mxCell id="a9IN5g6XuaWpcjSzZ8GR-88" value="" style="line;html=1;strokeWidth=1;align=left;verticalAlign=middle;spacingTop=-1;spacingLeft=3;spacingRight=3;rotatable=0;labelPosition=right;points=[];portConstraint=eastwest;" parent="a9IN5g6XuaWpcjSzZ8GR-83" vertex="1">
          <mxGeometry y="78" width="480" height="8" as="geometry" />
        </mxCell>
        <mxCell id="a9IN5g6XuaWpcjSzZ8GR-90" value="&lt;div style=&quot;line-height: 20px; font-size: 13px;&quot;&gt;&lt;div style=&quot;font-size: 11.3pt;&quot;&gt;&lt;pre style=&quot;font-size: 13px;&quot;&gt;&lt;font face=&quot;Helvetica&quot;&gt;&lt;font style=&quot;font-size: 13px;&quot;&gt;+ Sorce(*context.Context, param map[string]interface{}&lt;/font&gt;) (float64, error)&lt;/font&gt;&lt;/pre&gt;&lt;/div&gt;&lt;/div&gt;" style="text;html=1;align=left;verticalAlign=middle;whiteSpace=wrap;rounded=0;" parent="a9IN5g6XuaWpcjSzZ8GR-83" vertex="1">
          <mxGeometry y="86" width="480" height="30" as="geometry" />
        </mxCell>
      </root>
    </mxGraphModel>
  </diagram>
</mxfile>
